<?xml version="1.0" encoding="UTF-8" standalone="no"?>
<svg
   xmlns:dc="http://purl.org/dc/elements/1.1/"
   xmlns:cc="http://creativecommons.org/ns#"
   xmlns:rdf="http://www.w3.org/1999/02/22-rdf-syntax-ns#"
   xmlns:svg="http://www.w3.org/2000/svg"
   xmlns="http://www.w3.org/2000/svg"
   xmlns:sodipodi="http://sodipodi.sourceforge.net/DTD/sodipodi-0.dtd"
   xmlns:inkscape="http://www.inkscape.org/namespaces/inkscape"
   inkscape:export-ydpi="95.89801"
   inkscape:export-xdpi="95.89801"
   inkscape:export-filename="C:\Users\vedap\Documents\GitHub\vedaprakashms.github.io\logo.png"
   sodipodi:docname="logo.svg"
   inkscape:version="1.0 (4035a4fb49, 2020-05-01)"
   id="svg8"
   version="1.1"
   viewBox="0 0 210 297"
   height="297mm"
   width="210mm">
  <title
     id="title970">Logo</title>
  <defs
     id="defs2">
    <filter
       height="1.0000974"
       y="-4.8687635e-05"
       width="1.0003635"
       x="-0.00018173334"
       id="filter911"
       style="color-interpolation-filters:sRGB"
       inkscape:collect="always">
      <feGaussianBlur
         id="feGaussianBlur913"
         stdDeviation="0.0053223421"
         inkscape:collect="always" />
    </filter>
  </defs>
  <sodipodi:namedview
     inkscape:window-maximized="1"
     inkscape:window-y="-8"
     inkscape:window-x="1358"
     inkscape:window-height="715"
     inkscape:window-width="1366"
     inkscape:snap-smooth-nodes="true"
     inkscape:snap-intersection-paths="true"
     inkscape:object-paths="true"
     showborder="false"
     showgrid="false"
     inkscape:document-rotation="0"
     inkscape:current-layer="layer1"
     inkscape:document-units="mm"
     inkscape:cy="1624.335"
     inkscape:cx="1.414165"
     inkscape:zoom="0.088388348"
     inkscape:pageshadow="2"
     inkscape:pageopacity="0.0"
     borderopacity="1.0"
     bordercolor="#666666"
     pagecolor="#ffffff"
     id="base" />
  <metadata
     id="metadata5">
    <rdf:RDF>
      <cc:Work
         rdf:about="">
        <dc:format>image/svg+xml</dc:format>
        <dc:type
           rdf:resource="http://purl.org/dc/dcmitype/StillImage" />
        <dc:title>Logo</dc:title>
      </cc:Work>
    </rdf:RDF>
  </metadata>
  <g
     id="layer1"
     inkscape:groupmode="layer"
     inkscape:label="Layer 1">
    <path
       d="M 165.7374,-31.828719 A 194.92552,194.92553 0 0 0 -29.188319,163.097 194.92552,194.92553 0 0 0 165.7374,358.0227 194.92552,194.92553 0 0 0 360.6631,163.097 194.92552,194.92553 0 0 0 165.7374,-31.828719 Z m -0.24578,97.462851 a 97.462755,97.462761 0 0 1 0.24578,0 A 97.462755,97.462761 0 0 1 263.20025,163.097 97.462755,97.462761 0 0 1 165.7374,260.55986 97.462755,97.462761 0 0 1 68.274532,163.097 97.462755,97.462761 0 0 1 165.49162,65.634132 Z"
       style="opacity:0.5;fill:#0f98da;fill-opacity:0.995984;stroke-width:2.19017"
       id="path833" />
    <path
       transform="matrix(1.2995035,0,0,1.2995035,-0.49085767,-95.620703)"
       d="m 52.394216,211.6677 -0.0026,0.001 h -70.285113 v 262.35763 c 39.337247,-2.417 70.287698,-34.88317 70.287698,-74.8497 z"
       style="opacity:0.5;fill:#37a99f;fill-opacity:1;stroke-width:0.212132;filter:url(#filter911)"
       id="rect846" />
    <path
       id="path866"
       d="M 164.1613,65.635476 A 97.462755,97.462761 0 0 1 261.13729,163.097 97.462755,97.462761 0 0 1 163.67444,260.55986 97.462755,97.462761 0 0 1 67.595608,179.46303 V 322.31169 A 146.32092,146.32092 0 0 0 163.67444,358.27589 146.32092,146.32092 0 0 0 309.99497,211.95535 146.32092,146.32092 0 0 0 164.1613,65.635476 Z"
       style="opacity:0.5;fill:#0000ff;stroke-width:1.64406" />
    <path
       transform="matrix(1.2995035,0,0,1.2995035,-0.49085767,-95.620703)"
       id="path947"
       style="opacity:0.5;fill:#37a99f;fill-opacity:1;stroke-width:0.212132;filter:url(#filter911)"
       d="m 52.394216,211.6677 -0.0026,0.001 h -70.285113 v 262.35763 c 39.337247,-2.417 70.287698,-34.88317 70.287698,-74.8497 z" />
    <path
       transform="matrix(1.2995035,0,0,1.2995035,-0.49085767,-95.620703)"
       d="m 52.394216,211.6677 -0.0026,0.001 h -70.285113 v 262.35763 c 39.337247,-2.417 70.287698,-34.88317 70.287698,-74.8497 z"
       style="opacity:0.5;fill:#37a99f;fill-opacity:1;stroke-width:0.212132;filter:url(#filter911)"
       id="path949" />
    <path
       transform="matrix(1.2995035,0,0,1.2995035,-0.49085767,-95.620703)"
       id="path951"
       style="opacity:0.5;fill:#37a99f;fill-opacity:1;stroke-width:0.212132;filter:url(#filter911)"
       d="m 52.394216,211.6677 -0.0026,0.001 h -70.285113 v 262.35763 c 39.337247,-2.417 70.287698,-34.88317 70.287698,-74.8497 z" />
    <path
       transform="matrix(1.2995035,0,0,1.2995035,-0.49085767,-95.620703)"
       d="m 52.394216,211.6677 -0.0026,0.001 h -70.285113 v 262.35763 c 39.337247,-2.417 70.287698,-34.88317 70.287698,-74.8497 z"
       style="opacity:0.5;fill:#37a99f;fill-opacity:1;stroke-width:0.212132;filter:url(#filter911)"
       id="path953" />
    <path
       transform="matrix(1.2995035,0,0,1.2995035,-0.49085767,-95.620703)"
       id="path955"
       style="opacity:0.5;fill:#3c6eba;fill-opacity:1;stroke-width:0.212132;filter:url(#filter911)"
       d="m 52.394216,211.6677 -0.0026,0.001 h -70.285113 v 262.35763 c 39.337247,-2.417 70.287698,-34.88317 70.287698,-74.8497 z" />
    <rect
       transform="rotate(-19.662017)"
       ry="77.139603"
       y="-139.3262"
       x="-451.89935"
       height="553.44611"
       width="154.27921"
       id="rect1006"
       style="opacity:0.503;fill:#2ebd99;fill-opacity:1;stroke-width:0.306109" />
    <rect
       style="opacity:0.503;fill:#2ebd99;fill-opacity:1;stroke-width:0.306109"
       id="rect1008"
       width="154.27921"
       height="553.44611"
       x="-143.13962"
       y="23.552895"
       ry="77.139603"
       transform="rotate(20.795052)" />
  </g>
</svg>
