<?xml version="1.0" encoding="UTF-8" standalone="no"?>
<svg
   xmlns:dc="http://purl.org/dc/elements/1.1/"
   xmlns:cc="http://creativecommons.org/ns#"
   xmlns:rdf="http://www.w3.org/1999/02/22-rdf-syntax-ns#"
   xmlns:svg="http://www.w3.org/2000/svg"
   xmlns="http://www.w3.org/2000/svg"
   xmlns:sodipodi="http://sodipodi.sourceforge.net/DTD/sodipodi-0.dtd"
   xmlns:inkscape="http://www.inkscape.org/namespaces/inkscape"
   width="148mm"
   height="105mm"
   viewBox="0 0 148 105"
   version="1.1"
   id="svg8"
   inkscape:export-filename="C:\Users\vedap\Desktop\bitmap.png"
   inkscape:export-xdpi="96"
   inkscape:export-ydpi="96"
   inkscape:version="1.0 (4035a4fb49, 2020-05-01)"
   sodipodi:docname="logo.svg">
  <defs
     id="defs2">
    <rect
       x="-89.202377"
       y="59.720238"
       width="361.34525"
       height="74.839287"
       id="rect835" />
  </defs>
  <sodipodi:namedview
     id="base"
     pagecolor="#ffffff"
     bordercolor="#666666"
     borderopacity="1.0"
     inkscape:pageopacity="0.0"
     inkscape:pageshadow="2"
     inkscape:zoom="0.98994949"
     inkscape:cx="192.49736"
     inkscape:cy="69.850444"
     inkscape:document-units="px"
     inkscape:current-layer="text833"
     inkscape:document-rotation="0"
     showgrid="true"
     showborder="false"
     inkscape:window-width="1366"
     inkscape:window-height="715"
     inkscape:window-x="-8"
     inkscape:window-y="-8"
     inkscape:window-maximized="1">
    <inkscape:grid
       type="xygrid"
       id="grid889" />
  </sodipodi:namedview>
  <metadata
     id="metadata5">
    <rdf:RDF>
      <cc:Work
         rdf:about="">
        <dc:format>image/svg+xml</dc:format>
        <dc:type
           rdf:resource="http://purl.org/dc/dcmitype/StillImage" />
        <dc:title></dc:title>
      </cc:Work>
    </rdf:RDF>
  </metadata>
  <g
     inkscape:label="Layer 1"
     inkscape:groupmode="layer"
     id="layer1">
    <g
       style="font-style:normal;font-variant:normal;font-weight:bold;font-stretch:normal;font-size:24.6944px;line-height:1.25;font-family:serif;-inkscape-font-specification:'serif Bold';white-space:pre;shape-inside:url(#rect835);fill:#000000;fill-opacity:1;stroke:none"
       id="text833"
       transform="matrix(0.40498945,0,0,0.40498945,37.010676,-25.216036)"
       aria-label="Vishwakarma 
Software Solutions ">
      <path
         id="path843"
         style="font-style:normal;font-variant:normal;font-weight:bold;font-stretch:normal;font-family:serif;-inkscape-font-specification:'serif Bold';fill:#1a00ff;fill-opacity:1"
         d="m -71.622834,65.183809 v 0.446139 q -0.892278,0.144694 -1.591631,0.952567 -0.506428,0.602891 -1.507227,2.833586 l -5.630998,12.491894 h -0.397908 l -5.606883,-12.998322 q -1.012856,-2.351274 -1.362533,-2.761239 -0.337619,-0.409966 -1.290186,-0.518486 v -0.446139 h 7.837578 v 0.446139 h -0.265272 q -1.061087,0 -1.446937,0.265272 -0.27733,0.180867 -0.27733,0.530543 0,0.217041 0.09646,0.518486 0.09646,0.289388 0.651122,1.579574 l 3.484708,8.139024 3.231493,-7.246746 q 0.578775,-1.314302 0.711411,-1.760441 0.132636,-0.446139 0.132636,-0.759642 0,-0.361734 -0.192925,-0.639064 -0.192925,-0.27733 -0.566717,-0.422023 -0.518486,-0.204983 -1.374591,-0.204983 v -0.446139 z" />
      <path
         id="path845"
         style="font-style:normal;font-variant:normal;font-weight:bold;font-stretch:normal;font-family:serif;-inkscape-font-specification:'serif Bold';fill:#1a00ff;fill-opacity:1"
         d="m -68.728959,64.797959 q 0.783758,0 1.326359,0.554659 0.542602,0.542602 0.542602,1.314302 0,0.7717 -0.55466,1.314301 -0.542601,0.542602 -1.314301,0.542602 -0.7717,0 -1.314302,-0.542602 -0.542601,-0.542601 -0.542601,-1.314301 0,-0.7717 0.542601,-1.314302 0.542602,-0.554659 1.314302,-0.554659 z m 1.688093,5.462189 v 8.934839 q 0,1.193724 0.27733,1.531343 0.27733,0.32556 1.085203,0.373792 v 0.434081 h -6.089195 v -0.434081 q 0.747584,-0.02412 1.109319,-0.434082 0.241156,-0.277329 0.241156,-1.471053 v -6.583566 q 0,-1.193723 -0.27733,-1.519284 -0.27733,-0.337619 -1.073145,-0.38585 v -0.446139 z" />
      <path
         id="path847"
         style="font-style:normal;font-variant:normal;font-weight:bold;font-stretch:normal;font-family:serif;-inkscape-font-specification:'serif Bold';fill:#1a00ff;fill-opacity:1"
         d="m -57.466961,69.946645 0.180867,3.846442 h -0.409965 q -0.735527,-1.712209 -1.531343,-2.339216 -0.783758,-0.627006 -1.567515,-0.627006 -0.494371,0 -0.844047,0.337619 -0.349677,0.325561 -0.349677,0.759642 0,0.325561 0.241156,0.627006 0.38585,0.494371 2.158349,1.700152 1.772498,1.193723 2.327158,2.03777 0.566717,0.831989 0.566717,1.868961 0,0.94051 -0.470255,1.844846 -0.470254,0.904336 -1.326359,1.386648 -0.856105,0.482313 -1.893077,0.482313 -0.807873,0 -2.158348,-0.506428 -0.361735,-0.132636 -0.494371,-0.132636 -0.397907,0 -0.663179,0.60289 h -0.397908 l -0.192925,-4.051425 h 0.409966 q 0.542601,1.591631 1.483111,2.387447 0.952567,0.795816 1.796614,0.795816 0.578775,0 0.940509,-0.349677 0.373792,-0.361734 0.373792,-0.868162 0,-0.578775 -0.361734,-1.000799 -0.361735,-0.422023 -1.615747,-1.278128 -1.844845,-1.278128 -2.387447,-1.953366 -0.795816,-0.98874 -0.795816,-2.182464 0,-1.302244 0.892279,-2.351273 0.904335,-1.061088 2.604487,-1.061088 0.916394,0 1.772499,0.446139 0.325561,0.180867 0.530543,0.180867 0.217041,0 0.349677,-0.0844 0.132636,-0.09646 0.422023,-0.518486 z" />
      <path
         id="path849"
         style="font-style:normal;font-variant:normal;font-weight:bold;font-stretch:normal;font-family:serif;-inkscape-font-specification:'serif Bold';fill:#1a00ff;fill-opacity:1"
         d="m -50.389025,65.183809 v 6.523276 q 0.928451,-0.976682 1.700151,-1.37459 0.7717,-0.409966 1.603689,-0.409966 1.061088,0 1.808672,0.602891 0.759643,0.60289 1.000799,1.422822 0.253214,0.807873 0.253214,2.737123 v 4.401102 q 0,1.290186 0.241156,1.615747 0.241156,0.313503 0.976683,0.397908 v 0.434081 h -5.715403 v -0.434081 q 0.60289,-0.08441 0.904336,-0.482313 0.21704,-0.313503 0.21704,-1.531342 v -5.028108 q 0,-1.398706 -0.10852,-1.748383 -0.10852,-0.361734 -0.373792,-0.554659 -0.253214,-0.204983 -0.578775,-0.204983 -0.482313,0 -0.94051,0.337619 -0.458196,0.325561 -0.98874,1.15755 v 6.040964 q 0,1.205781 0.180867,1.507227 0.229098,0.409965 0.940509,0.506428 v 0.434081 h -5.715403 v -0.434081 q 0.711411,-0.07235 1.012856,-0.458197 0.204983,-0.265272 0.204983,-1.555458 V 67.631545 q 0,-1.278128 -0.241156,-1.591632 -0.229099,-0.313503 -0.976683,-0.409965 v -0.446139 z" />
      <path
         id="path851"
         style="font-style:normal;font-variant:normal;font-weight:bold;font-stretch:normal;font-family:serif;-inkscape-font-specification:'serif Bold';fill:#1a00ff;fill-opacity:1"
         d="m -30.07161,81.871822 -3.0868,-8.27166 -3.026512,8.27166 h -0.627006 l -3.002395,-8.175197 q -0.675238,-1.868961 -1.145492,-2.435679 -0.301446,-0.38585 -0.916394,-0.554659 v -0.446139 h 5.691287 v 0.446139 q -0.578775,0 -0.795815,0.168809 -0.217041,0.16881 -0.217041,0.38585 0,0.204983 0.38585,1.229897 l 1.651921,4.401102 1.591631,-4.401102 -0.120578,-0.289387 q -0.361735,-0.904336 -0.639064,-1.145492 -0.265272,-0.253214 -0.831989,-0.349677 v -0.446139 h 5.775692 v 0.446139 q -0.675238,0.03617 -0.856105,0.192925 -0.180867,0.144694 -0.180867,0.422023 0,0.265272 0.349677,1.169608 l 1.591631,4.401102 1.446937,-4.051425 q 0.313504,-0.868163 0.313504,-1.181666 0,-0.470254 -0.229099,-0.687295 -0.229098,-0.217041 -0.892278,-0.265272 v -0.446139 h 3.340014 v 0.446139 q -0.554659,0.07235 -0.88022,0.397908 -0.325561,0.313503 -0.844047,1.808672 l -3.159147,8.958955 z" />
      <path
         id="path853"
         style="font-style:normal;font-variant:normal;font-weight:bold;font-stretch:normal;font-family:serif;-inkscape-font-specification:'serif Bold';fill:#1a00ff;fill-opacity:1"
         d="m -17.181806,79.870225 q -2.061886,1.82073 -3.701748,1.82073 -0.964625,0 -1.603689,-0.627007 -0.639064,-0.639064 -0.639064,-1.591631 0,-1.290186 1.109318,-2.3151 1.109319,-1.036972 4.835183,-2.749181 v -1.133435 q 0,-1.278128 -0.144693,-1.603689 -0.132636,-0.337619 -0.518486,-0.578775 -0.38585,-0.253214 -0.868163,-0.253214 -0.783758,0 -1.290186,0.349677 -0.313503,0.21704 -0.313503,0.506428 0,0.253214 0.337619,0.627006 0.458197,0.518486 0.458197,1.000798 0,0.590833 -0.446139,1.012857 -0.434082,0.409965 -1.145493,0.409965 -0.759642,0 -1.278128,-0.458197 -0.506428,-0.458196 -0.506428,-1.073145 0,-0.868162 0.687295,-1.65192 0.687296,-0.795816 1.917193,-1.217839 1.229897,-0.422024 2.556256,-0.422024 1.603689,0 2.532141,0.687296 0.940509,0.675237 1.217839,1.471053 0.168809,0.506428 0.168809,2.327158 v 4.376986 q 0,0.7717 0.06029,0.976683 0.06029,0.192925 0.180867,0.289387 0.120578,0.09646 0.27733,0.09646 0.313503,0 0.639064,-0.44614 l 0.361735,0.289388 q -0.602891,0.892278 -1.254013,1.302244 -0.639064,0.397908 -1.458995,0.397908 -0.964625,0 -1.507227,-0.44614 -0.542602,-0.458196 -0.66318,-1.37459 z m 0,-0.880221 v -3.774095 q -1.458995,0.856105 -2.170406,1.832788 -0.470255,0.651122 -0.470255,1.314301 0,0.55466 0.397908,0.976683 0.301445,0.325561 0.844047,0.325561 0.602891,0 1.398706,-0.675238 z" />
      <path
         id="path855"
         style="font-style:normal;font-variant:normal;font-weight:bold;font-stretch:normal;font-family:serif;-inkscape-font-specification:'serif Bold';fill:#1a00ff;fill-opacity:1"
         d="m -6.4744697,65.183809 v 10.755569 l 2.6165453,-2.568314 q 0.8078735,-0.783758 1.0007985,-1.133435 0.2049828,-0.349676 0.2049828,-0.675237 0,-0.325561 -0.2652718,-0.542602 -0.2652719,-0.21704 -1.036972,-0.313503 v -0.446139 h 5.0522236 v 0.446139 q -0.72346873,0.03617 -1.26607031,0.349677 -0.54260158,0.301445 -2.12217509,1.844845 l -1.2298969,1.205781 2.65271884,3.882616 q 1.60368912,2.363331 1.90513446,2.652719 0.4099656,0.409965 1.0369719,0.458197 v 0.434081 H -3.749404 v -0.434081 q 0.38585,0 0.5546594,-0.144694 0.1808671,-0.144694 0.1808671,-0.313503 0,-0.27733 -0.5064281,-1.024914 l -2.2306954,-3.267668 -0.7234687,0.711411 v 2.025713 q 0,1.290186 0.2411562,1.615747 0.2411563,0.313503 0.9887407,0.397908 v 0.434081 h -5.8239232 v -0.434081 q 0.711411,-0.07235 1.012856,-0.458197 0.2049826,-0.265272 0.2049826,-1.555458 V 67.631545 q 0,-1.278128 -0.2411566,-1.591632 -0.229098,-0.313503 -0.976682,-0.409965 v -0.446139 z" />
      <path
         id="path857"
         style="font-style:normal;font-variant:normal;font-weight:bold;font-stretch:normal;font-family:serif;-inkscape-font-specification:'serif Bold';fill:#1a00ff;fill-opacity:1"
         d="m 8.9112958,79.870225 q -2.061886,1.82073 -3.7017485,1.82073 -0.9646251,0 -1.6036892,-0.627007 -0.639064,-0.639064 -0.639064,-1.591631 0,-1.290186 1.1093188,-2.3151 1.1093187,-1.036972 4.8351829,-2.749181 v -1.133435 q 0,-1.278128 -0.1446937,-1.603689 -0.132636,-0.337619 -0.518486,-0.578775 -0.38585,-0.253214 -0.8681625,-0.253214 -0.7837579,0 -1.290186,0.349677 -0.3135031,0.21704 -0.3135031,0.506428 0,0.253214 0.3376187,0.627006 0.4581969,0.518486 0.4581969,1.000798 0,0.590833 -0.4461391,1.012857 -0.4340812,0.409965 -1.1454922,0.409965 -0.7596422,0 -1.2781281,-0.458197 -0.5064282,-0.458196 -0.5064282,-1.073145 0,-0.868162 0.6872953,-1.65192 0.6872954,-0.795816 1.9171923,-1.217839 1.2298969,-0.422024 2.5562563,-0.422024 1.6036891,0 2.5321406,0.687296 0.94051,0.675237 1.217839,1.471053 0.16881,0.506428 0.16881,2.327158 v 4.376986 q 0,0.7717 0.06029,0.976683 0.06029,0.192925 0.180867,0.289387 0.120578,0.09646 0.27733,0.09646 0.313503,0 0.639064,-0.44614 l 0.361734,0.289388 q -0.602891,0.892278 -1.254013,1.302244 -0.639064,0.397908 -1.458995,0.397908 -0.964625,0 -1.5072265,-0.44614 -0.5426016,-0.458196 -0.6631797,-1.37459 z m 0,-0.880221 v -3.774095 q -1.4589953,0.856105 -2.1704063,1.832788 -0.4702547,0.651122 -0.4702547,1.314301 0,0.55466 0.3979078,0.976683 0.3014453,0.325561 0.8440469,0.325561 0.6028907,0 1.3987063,-0.675238 z" />
      <path
         id="path859"
         style="font-style:normal;font-variant:normal;font-weight:bold;font-stretch:normal;font-family:serif;-inkscape-font-specification:'serif Bold';fill:#1a00ff;fill-opacity:1"
         d="m 19.715102,70.260148 v 2.556256 q 1.121376,-1.748383 1.965423,-2.3151 0.844047,-0.578775 1.627805,-0.578775 0.675238,0 1.073145,0.422024 0.409966,0.409965 0.409966,1.169607 0,0.807874 -0.397908,1.254013 -0.38585,0.446139 -0.940509,0.446139 -0.639064,0 -1.109319,-0.409966 -0.470255,-0.409965 -0.554659,-0.458196 -0.120578,-0.07235 -0.27733,-0.07235 -0.349677,0 -0.66318,0.265272 -0.49437,0.409965 -0.747584,1.169607 -0.38585,1.169608 -0.38585,2.580372 v 2.59243 l 0.01206,0.675238 q 0,0.687295 0.0844,0.88022 0.144694,0.325561 0.422024,0.482313 0.289387,0.144693 0.964625,0.180867 V 81.5342 h -6.089196 v -0.434081 q 0.735527,-0.06029 0.988741,-0.397908 0.265272,-0.349677 0.265272,-1.82073 v -6.233889 q 0,-0.964625 -0.09646,-1.229897 -0.120578,-0.337619 -0.349676,-0.49437 -0.229099,-0.156752 -0.807874,-0.217041 v -0.446139 z" />
      <path
         id="path861"
         style="font-style:normal;font-variant:normal;font-weight:bold;font-stretch:normal;font-family:serif;-inkscape-font-specification:'serif Bold';fill:#1a00ff;fill-opacity:1"
         d="m 30.663596,70.260148 v 1.483111 q 0.928451,-1.012856 1.712209,-1.410764 0.795816,-0.409966 1.736325,-0.409966 1.085203,0 1.82073,0.506428 0.735527,0.506428 1.133434,1.5434 0.964626,-1.085203 1.844846,-1.567515 0.892278,-0.482313 1.856903,-0.482313 1.169608,0 1.856903,0.542602 0.699353,0.530544 0.964625,1.362533 0.27733,0.819931 0.27733,2.628603 v 4.618142 q 0,1.302244 0.229098,1.615747 0.241157,0.313503 0.988741,0.409966 v 0.434081 h -5.823924 v -0.434081 q 0.687296,-0.06029 1.012857,-0.530544 0.21704,-0.325561 0.21704,-1.495169 v -4.847241 q 0,-1.507226 -0.120578,-1.917192 -0.120578,-0.409965 -0.38585,-0.602891 -0.253214,-0.204982 -0.60289,-0.204982 -0.518486,0 -1.04903,0.38585 -0.530544,0.373792 -1.073146,1.133434 v 6.053022 q 0,1.217839 0.204983,1.531342 0.27733,0.446139 1.061088,0.494371 v 0.434081 h -5.835982 v -0.434081 q 0.470255,-0.02412 0.735527,-0.229099 0.27733,-0.21704 0.361734,-0.506428 0.09646,-0.301445 0.09646,-1.290186 v -4.847241 q 0,-1.531342 -0.120578,-1.917192 -0.120578,-0.38585 -0.409966,-0.602891 -0.27733,-0.21704 -0.602891,-0.21704 -0.482312,0 -0.88022,0.253214 -0.566717,0.373792 -1.205781,1.278128 v 6.053022 q 0,1.193724 0.229098,1.579574 0.241157,0.373792 0.988741,0.446139 v 0.434081 h -5.811866 v -0.434081 q 0.711411,-0.07235 1.012856,-0.458197 0.204983,-0.265272 0.204983,-1.567516 v -6.366525 q 0,-1.278128 -0.241156,-1.591631 -0.229098,-0.313503 -0.976683,-0.409966 v -0.446139 z" />
      <path
         id="path863"
         style="font-style:normal;font-variant:normal;font-weight:bold;font-stretch:normal;font-family:serif;-inkscape-font-specification:'serif Bold';fill:#1a00ff;fill-opacity:1"
         d="m 52.80173,79.870225 q -2.061886,1.82073 -3.701748,1.82073 -0.964626,0 -1.60369,-0.627007 -0.639064,-0.639064 -0.639064,-1.591631 0,-1.290186 1.109319,-2.3151 1.109319,-1.036972 4.835183,-2.749181 v -1.133435 q 0,-1.278128 -0.144694,-1.603689 -0.132636,-0.337619 -0.518486,-0.578775 -0.38585,-0.253214 -0.868162,-0.253214 -0.783758,0 -1.290186,0.349677 -0.313503,0.21704 -0.313503,0.506428 0,0.253214 0.337618,0.627006 0.458197,0.518486 0.458197,1.000798 0,0.590833 -0.446139,1.012857 -0.434081,0.409965 -1.145492,0.409965 -0.759642,0 -1.278128,-0.458197 -0.506428,-0.458196 -0.506428,-1.073145 0,-0.868162 0.687295,-1.65192 0.687295,-0.795816 1.917192,-1.217839 1.229897,-0.422024 2.556257,-0.422024 1.603689,0 2.53214,0.687296 0.94051,0.675237 1.217839,1.471053 0.16881,0.506428 0.16881,2.327158 v 4.376986 q 0,0.7717 0.06029,0.976683 0.06029,0.192925 0.180867,0.289387 0.120578,0.09646 0.27733,0.09646 0.313503,0 0.639064,-0.44614 l 0.361734,0.289388 q -0.60289,0.892278 -1.254012,1.302244 -0.639064,0.397908 -1.458996,0.397908 -0.964625,0 -1.507226,-0.44614 -0.542602,-0.458196 -0.66318,-1.37459 z m 0,-0.880221 v -3.774095 q -1.458995,0.856105 -2.170406,1.832788 -0.470255,0.651122 -0.470255,1.314301 0,0.55466 0.397908,0.976683 0.301445,0.325561 0.844047,0.325561 0.60289,0 1.398706,-0.675238 z" />
      <path
         id="path865"
         style="font-style:normal;font-variant:normal;font-weight:bold;font-stretch:normal;font-family:serif;-inkscape-font-specification:'serif Bold'"
         d="m 74.850398,64.923726 0.132636,5.450127 h -0.49437 q -0.349677,-2.049824 -1.724268,-3.291779 -1.362532,-1.254012 -2.954164,-1.254012 -1.229897,0 -1.953365,0.663179 -0.711411,0.651122 -0.711411,1.507227 0,0.542602 0.253214,0.964625 0.349676,0.56672 1.121376,1.12138 0.566717,0.3979 2.616546,1.41076 2.869759,1.41076 3.870558,2.66478 0.98874,1.25401 0.98874,2.86976 0,2.04983 -1.603689,3.53294 -1.591631,1.47105 -4.051425,1.47105 -0.7717,0 -1.458995,-0.15675 -0.687296,-0.15675 -1.724268,-0.59084 -0.578775,-0.24115 -0.952567,-0.24115 -0.313503,0 -0.66318,0.24115 -0.349676,0.24116 -0.566717,0.73553 H 64.52891 v -6.1736 h 0.446139 q 0.530544,2.60449 2.037771,3.97908 1.519284,1.36253 3.267667,1.36253 1.350475,0 2.146291,-0.73552 0.807873,-0.73553 0.807873,-1.71221 0,-0.57878 -0.313503,-1.12138 -0.301445,-0.5426 -0.928452,-1.02491 -0.627006,-0.49437 -2.218637,-1.27813 -2.230696,-1.09726 -3.207378,-1.86896 -0.976683,-0.7717 -1.507227,-1.72427 -0.518486,-0.95257 -0.518486,-2.09806 0,-1.953366 1.43488,-3.327957 1.434879,-1.37459 3.617344,-1.37459 0.795815,0 1.5434,0.192925 0.566717,0.144694 1.37459,0.542601 0.819932,0.38585 1.145493,0.38585 0.313503,0 0.49437,-0.192925 0.180867,-0.192925 0.337619,-0.928451 z" />
      <path
         id="path867"
         style="font-style:normal;font-variant:normal;font-weight:bold;font-stretch:normal;font-family:serif;-inkscape-font-specification:'serif Bold'"
         d="m 83.146173,70.036243 q 1.471054,0 2.737124,0.75964 1.26607,0.75964 1.917192,2.15835 0.66318,1.3987 0.66318,3.06268 0,2.39951 -1.217839,4.01525 -1.471053,1.95337 -4.063483,1.95337 -2.544199,0 -3.918789,-1.78456 -1.374591,-1.78455 -1.374591,-4.13583 0,-2.42362 1.398706,-4.22023 1.410764,-1.80867 3.8585,-1.80867 z m 0.04823,0.8561 q -0.614949,0 -1.061088,0.47025 -0.434081,0.4582 -0.578775,1.83279 -0.132636,1.36254 -0.132636,3.79821 0,1.29019 0.16881,2.41157 0.132635,0.8561 0.566717,1.30224 0.434081,0.44614 0.98874,0.44614 0.542602,0 0.904336,-0.30145 0.470255,-0.40996 0.627007,-1.14549 0.241156,-1.14549 0.241156,-4.6302 0,-2.04983 -0.229099,-2.80947 -0.229098,-0.7717 -0.675237,-1.12138 -0.313503,-0.25321 -0.819931,-0.25321 z" />
      <path
         id="path869"
         style="font-style:normal;font-variant:normal;font-weight:bold;font-stretch:normal;font-family:serif;-inkscape-font-specification:'serif Bold'"
         d="m 95.119582,71.555523 v 7.82552 q 0,1.13343 0.241156,1.42282 0.38585,0.44614 1.422822,0.40997 v 0.43408 h -6.643855 v -0.43408 q 0.759642,-0.0121 1.073145,-0.16881 0.325561,-0.16881 0.446139,-0.4582 0.120578,-0.28939 0.120578,-1.20578 v -7.82552 h -1.639862 v -1.18167 h 1.639862 v -0.83198 l -0.01206,-0.566722 q 0,-1.736325 1.26607,-2.893875 1.278128,-1.15755 3.448534,-1.15755 1.483111,0 2.194522,0.554659 0.723469,0.55466 0.723469,1.229897 0,0.542602 -0.446139,0.940509 -0.446139,0.397908 -1.181666,0.397908 -0.627006,0 -1.000798,-0.325561 -0.361734,-0.325561 -0.361734,-0.723468 0,-0.108521 0.07235,-0.44614 0.04823,-0.204982 0.04823,-0.38585 0,-0.253214 -0.144694,-0.373792 -0.192925,-0.180867 -0.470255,-0.180867 -0.349676,0 -0.590833,0.289388 -0.229098,0.289387 -0.229098,0.928451 l 0.02412,2.110117 v 1.434876 h 1.663978 v 1.18167 z" />
      <path
         id="path871"
         style="font-style:normal;font-variant:normal;font-weight:bold;font-stretch:normal;font-family:serif;-inkscape-font-specification:'serif Bold'"
         d="m 102.89687,66.250085 v 4.123768 h 2.67684 v 1.19373 h -2.67684 v 6.95736 q 0,0.97668 0.0844,1.26607 0.0965,0.27733 0.32556,0.45819 0.2291,0.16881 0.42203,0.16881 0.78375,0 1.48311,-1.19372 l 0.36173,0.26527 q -0.97668,2.3151 -3.1712,2.3151 -1.07315,0 -1.82073,-0.59083 -0.73553,-0.60289 -0.940512,-1.33842 -0.120578,-0.40996 -0.120578,-2.21864 v -6.08919 h -1.471054 v -0.42203 q 1.519285,-1.07314 2.580374,-2.254807 1.07314,-1.181665 1.86896,-2.640661 z" />
      <path
         id="path873"
         style="font-style:normal;font-variant:normal;font-weight:bold;font-stretch:normal;font-family:serif;-inkscape-font-specification:'serif Bold'"
         d="m 117.84856,81.985533 -3.0868,-8.27166 -3.02651,8.27166 h -0.62701 l -3.00239,-8.1752 q -0.67524,-1.86896 -1.1455,-2.43568 -0.30144,-0.38585 -0.91639,-0.55466 v -0.44614 h 5.69129 v 0.44614 q -0.57878,0 -0.79582,0.16881 -0.21704,0.16881 -0.21704,0.38585 0,0.20499 0.38585,1.2299 l 1.65192,4.4011 1.59163,-4.4011 -0.12057,-0.28939 q -0.36174,-0.90433 -0.63907,-1.14549 -0.26527,-0.25321 -0.83199,-0.34968 v -0.44614 h 5.77569 v 0.44614 q -0.67523,0.0362 -0.8561,0.19293 -0.18087,0.14469 -0.18087,0.42202 0,0.26527 0.34968,1.16961 l 1.59163,4.4011 1.44694,-4.05142 q 0.3135,-0.86817 0.3135,-1.18167 0,-0.47025 -0.2291,-0.68729 -0.2291,-0.21705 -0.89228,-0.26528 v -0.44614 h 3.34002 v 0.44614 q -0.55466,0.0724 -0.88022,0.39791 -0.32556,0.3135 -0.84405,1.80867 l -3.15915,8.95896 z" />
      <path
         id="path875"
         style="font-style:normal;font-variant:normal;font-weight:bold;font-stretch:normal;font-family:serif;-inkscape-font-specification:'serif Bold'"
         d="m 130.73836,79.983933 q -2.06188,1.82073 -3.70174,1.82073 -0.96463,0 -1.60369,-0.62701 -0.63907,-0.63906 -0.63907,-1.59163 0,-1.29018 1.10932,-2.3151 1.10932,-1.03697 4.83518,-2.74918 v -1.13343 q 0,-1.27813 -0.14469,-1.60369 -0.13264,-0.33762 -0.51849,-0.57878 -0.38585,-0.25321 -0.86816,-0.25321 -0.78376,0 -1.29018,0.34968 -0.31351,0.21704 -0.31351,0.50642 0,0.25322 0.33762,0.62701 0.4582,0.51849 0.4582,1.0008 0,0.59083 -0.44614,1.01285 -0.43408,0.40997 -1.14549,0.40997 -0.75965,0 -1.27813,-0.4582 -0.50643,-0.45819 -0.50643,-1.07314 0,-0.86816 0.6873,-1.65192 0.68729,-0.79582 1.91719,-1.21784 1.22989,-0.42202 2.55625,-0.42202 1.60369,0 2.53214,0.68729 0.94051,0.67524 1.21784,1.47105 0.16881,0.50643 0.16881,2.32716 v 4.37699 q 0,0.7717 0.0603,0.97668 0.0603,0.19293 0.18087,0.28939 0.12058,0.0965 0.27733,0.0965 0.3135,0 0.63906,-0.44614 l 0.36174,0.28939 q -0.60289,0.89228 -1.25401,1.30224 -0.63907,0.39791 -1.459,0.39791 -0.96462,0 -1.50723,-0.44614 -0.5426,-0.4582 -0.66318,-1.37459 z m 0,-0.88022 v -3.77409 q -1.45899,0.8561 -2.1704,1.83278 -0.47026,0.65112 -0.47026,1.3143 0,0.55466 0.39791,0.97669 0.30145,0.32556 0.84405,0.32556 0.60289,0 1.3987,-0.67524 z" />
      <path
         id="path877"
         style="font-style:normal;font-variant:normal;font-weight:bold;font-stretch:normal;font-family:serif;-inkscape-font-specification:'serif Bold'"
         d="m 141.54216,70.373853 v 2.55626 q 1.12138,-1.74838 1.96543,-2.3151 0.84404,-0.57877 1.6278,-0.57877 0.67524,0 1.07315,0.42202 0.40996,0.40996 0.40996,1.16961 0,0.80787 -0.39791,1.25401 -0.38585,0.44614 -0.94051,0.44614 -0.63906,0 -1.10931,-0.40997 -0.47026,-0.40996 -0.55466,-0.45819 -0.12058,-0.0724 -0.27733,-0.0724 -0.34968,0 -0.66318,0.26527 -0.49437,0.40997 -0.74759,1.16961 -0.38585,1.16961 -0.38585,2.58037 v 2.59243 l 0.0121,0.67524 q 0,0.68729 0.0844,0.88022 0.1447,0.32556 0.42203,0.48231 0.28938,0.14469 0.96462,0.18087 v 0.43408 h -6.08919 v -0.43408 q 0.73552,-0.0603 0.98874,-0.39791 0.26527,-0.34968 0.26527,-1.82073 v -6.23389 q 0,-0.96462 -0.0965,-1.2299 -0.12058,-0.33761 -0.34968,-0.49437 -0.2291,-0.15675 -0.80787,-0.21704 v -0.44614 z" />
      <path
         id="path879"
         style="font-style:normal;font-variant:normal;font-weight:bold;font-stretch:normal;font-family:serif;-inkscape-font-specification:'serif Bold'"
         d="m 156.92793,75.606943 h -6.18566 q 0.10852,2.24276 1.19373,3.545 0.83199,1.0008 2.00159,1.0008 0.72347,0 1.3143,-0.39791 0.59084,-0.40996 1.26608,-1.45899 l 0.40996,0.26527 q -0.91639,1.86896 -2.02571,2.65272 -1.10932,0.7717 -2.56832,0.7717 -2.50802,0 -3.79821,-1.92925 -1.03697,-1.55546 -1.03697,-3.8585 0,-2.82153 1.51929,-4.48551 1.53134,-1.67603 3.58117,-1.67603 1.71221,0 2.96622,1.41076 1.26607,1.39871 1.36253,4.15994 z m -2.96622,-0.80787 q 0,-1.94131 -0.21704,-2.66478 -0.20498,-0.72346 -0.65112,-1.09726 -0.25322,-0.21704 -0.67524,-0.21704 -0.62701,0 -1.02492,0.61495 -0.71141,1.07315 -0.71141,2.94211 v 0.42202 z" />
      <path
         id="path881"
         style="font-style:normal;font-variant:normal;font-weight:bold;font-stretch:normal;font-family:serif;-inkscape-font-specification:'serif Bold'"
         d="m 175.26786,64.923726 0.13264,5.450127 h -0.49437 q -0.34968,-2.049824 -1.72427,-3.291779 -1.36253,-1.254012 -2.95416,-1.254012 -1.2299,0 -1.95337,0.663179 -0.71141,0.651122 -0.71141,1.507227 0,0.542602 0.25321,0.964625 0.34968,0.56672 1.12138,1.12138 0.56672,0.3979 2.61655,1.41076 2.86976,1.41076 3.87055,2.66478 0.98874,1.25401 0.98874,2.86976 0,2.04983 -1.60368,3.53294 -1.59164,1.47105 -4.05143,1.47105 -0.7717,0 -1.45899,-0.15675 -0.6873,-0.15675 -1.72427,-0.59084 -0.57878,-0.24115 -0.95257,-0.24115 -0.3135,0 -0.66318,0.24115 -0.34968,0.24116 -0.56672,0.73553 h -0.44614 v -6.1736 h 0.44614 q 0.53055,2.60449 2.03777,3.97908 1.51929,1.36253 3.26767,1.36253 1.35048,0 2.14629,-0.73552 0.80788,-0.73553 0.80788,-1.71221 0,-0.57878 -0.31351,-1.12138 -0.30144,-0.5426 -0.92845,-1.02491 -0.62701,-0.49437 -2.21864,-1.27813 -2.23069,-1.09726 -3.20737,-1.86896 -0.97669,-0.7717 -1.50723,-1.72427 -0.51849,-0.95257 -0.51849,-2.09806 0,-1.953366 1.43488,-3.327957 1.43488,-1.37459 3.61735,-1.37459 0.79581,0 1.5434,0.192925 0.56671,0.144694 1.37459,0.542601 0.81993,0.38585 1.14549,0.38585 0.3135,0 0.49437,-0.192925 0.18087,-0.192925 0.33762,-0.928451 z" />
      <path
         id="path883"
         style="font-style:normal;font-variant:normal;font-weight:bold;font-stretch:normal;font-family:serif;-inkscape-font-specification:'serif Bold'"
         d="m 183.56364,70.036243 q 1.47106,0 2.73713,0.75964 1.26607,0.75964 1.91719,2.15835 0.66318,1.3987 0.66318,3.06268 0,2.39951 -1.21784,4.01525 -1.47105,1.95337 -4.06348,1.95337 -2.5442,0 -3.91879,-1.78456 -1.37459,-1.78455 -1.37459,-4.13583 0,-2.42362 1.3987,-4.22023 1.41077,-1.80867 3.8585,-1.80867 z m 0.0482,0.8561 q -0.61495,0 -1.06109,0.47025 -0.43408,0.4582 -0.57877,1.83279 -0.13264,1.36254 -0.13264,3.79821 0,1.29019 0.16881,2.41157 0.13264,0.8561 0.56672,1.30224 0.43408,0.44614 0.98874,0.44614 0.5426,0 0.90434,-0.30145 0.47025,-0.40996 0.627,-1.14549 0.24116,-1.14549 0.24116,-4.6302 0,-2.04983 -0.2291,-2.80947 -0.2291,-0.7717 -0.67524,-1.12138 -0.3135,-0.25321 -0.81993,-0.25321 z" />
      <path
         id="path885"
         style="font-style:normal;font-variant:normal;font-weight:bold;font-stretch:normal;font-family:serif;-inkscape-font-specification:'serif Bold'"
         d="m 195.0065,65.297518 v 14.011175 q 0,1.19373 0.27733,1.53135 0.27733,0.32556 1.08521,0.37379 v 0.43408 h -6.0892 v -0.43408 q 0.74759,-0.0241 1.10932,-0.43408 0.24116,-0.27733 0.24116,-1.47106 V 67.636734 q 0,-1.181666 -0.27733,-1.507227 -0.27733,-0.337619 -1.07315,-0.38585 v -0.446139 z" />
      <path
         id="path887"
         style="font-style:normal;font-variant:normal;font-weight:bold;font-stretch:normal;font-family:serif;-inkscape-font-specification:'serif Bold'"
         d="m 208.33038,70.373853 v 8.82632 q 0,1.29019 0.24116,1.61575 0.24115,0.3135 0.97668,0.39791 v 0.43408 h -4.59403 v -1.50723 q -0.80787,0.96463 -1.61574,1.41077 -0.80788,0.43408 -1.80868,0.43408 -0.95256,0 -1.70015,-0.57878 -0.73552,-0.59083 -0.98874,-1.37459 -0.25321,-0.78376 -0.25321,-2.73712 v -4.47345 q 0,-1.27813 -0.24116,-1.59163 -0.2291,-0.3135 -0.97668,-0.40997 v -0.44614 h 4.59403 v 7.70495 q 0,1.20578 0.10852,1.55545 0.12057,0.34968 0.36173,0.53055 0.25321,0.18087 0.57878,0.18087 0.43408,0 0.78375,-0.2291 0.48232,-0.31351 1.15755,-1.26607 v -6.02891 q 0,-1.27813 -0.24115,-1.59163 -0.2291,-0.3135 -0.97669,-0.40997 v -0.44614 z" />
      <path
         id="path889"
         style="font-style:normal;font-variant:normal;font-weight:bold;font-stretch:normal;font-family:serif;-inkscape-font-specification:'serif Bold'"
         d="m 215.66154,66.250085 v 4.123768 h 2.67683 v 1.19373 h -2.67683 v 6.95736 q 0,0.97668 0.0844,1.26607 0.0965,0.27733 0.32556,0.45819 0.22909,0.16881 0.42202,0.16881 0.78376,0 1.48311,-1.19372 l 0.36173,0.26527 q -0.97668,2.3151 -3.1712,2.3151 -1.07315,0 -1.82073,-0.59083 -0.73553,-0.60289 -0.94051,-1.33842 -0.12058,-0.40996 -0.12058,-2.21864 v -6.08919 h -1.47105 v -0.42203 q 1.51928,-1.07314 2.58037,-2.254807 1.07315,-1.181665 1.86896,-2.640661 z" />
      <path
         id="path891"
         style="font-style:normal;font-variant:normal;font-weight:bold;font-stretch:normal;font-family:serif;-inkscape-font-specification:'serif Bold'"
         d="m 222.14864,64.911668 q 0.78376,0 1.32636,0.554659 0.5426,0.542602 0.5426,1.314302 0,0.7717 -0.55466,1.314302 -0.5426,0.542601 -1.3143,0.542601 -0.7717,0 -1.3143,-0.542601 -0.54261,-0.542602 -0.54261,-1.314302 0,-0.7717 0.54261,-1.314302 0.5426,-0.554659 1.3143,-0.554659 z m 1.68809,5.462185 v 8.93484 q 0,1.19373 0.27733,1.53135 0.27733,0.32556 1.0852,0.37379 v 0.43408 h -6.08919 v -0.43408 q 0.74758,-0.0241 1.10932,-0.43408 0.24115,-0.27733 0.24115,-1.47106 v -6.58356 q 0,-1.19373 -0.27733,-1.51929 -0.27733,-0.33762 -1.07314,-0.38585 v -0.44614 z" />
      <path
         id="path893"
         style="font-style:normal;font-variant:normal;font-weight:bold;font-stretch:normal;font-family:serif;-inkscape-font-specification:'serif Bold'"
         d="m 231.60197,70.036243 q 1.47106,0 2.73713,0.75964 1.26607,0.75964 1.91719,2.15835 0.66318,1.3987 0.66318,3.06268 0,2.39951 -1.21784,4.01525 -1.47105,1.95337 -4.06348,1.95337 -2.5442,0 -3.91879,-1.78456 -1.37459,-1.78455 -1.37459,-4.13583 0,-2.42362 1.3987,-4.22023 1.41077,-1.80867 3.8585,-1.80867 z m 0.0482,0.8561 q -0.61495,0 -1.06109,0.47025 -0.43408,0.4582 -0.57877,1.83279 -0.13264,1.36254 -0.13264,3.79821 0,1.29019 0.16881,2.41157 0.13264,0.8561 0.56672,1.30224 0.43408,0.44614 0.98874,0.44614 0.5426,0 0.90434,-0.30145 0.47025,-0.40996 0.627,-1.14549 0.24116,-1.14549 0.24116,-4.6302 0,-2.04983 -0.2291,-2.80947 -0.2291,-0.7717 -0.67524,-1.12138 -0.3135,-0.25321 -0.81993,-0.25321 z" />
      <path
         id="path895"
         style="font-style:normal;font-variant:normal;font-weight:bold;font-stretch:normal;font-family:serif;-inkscape-font-specification:'serif Bold'"
         d="m 243.23776,70.373853 v 1.459 q 0.86816,-0.94051 1.66398,-1.36253 0.79581,-0.43408 1.71221,-0.43408 1.09726,0 1.82073,0.61494 0.72347,0.60289 0.96462,1.50723 0.19293,0.6873 0.19293,2.64066 v 4.38905 q 0,1.30224 0.2291,1.6278 0.24115,0.3135 0.98874,0.39791 v 0.43408 h -5.70335 v -0.43408 q 0.63906,-0.0844 0.91639,-0.53055 0.19293,-0.30144 0.19293,-1.49516 v -5.01605 q 0,-1.38665 -0.10852,-1.74839 -0.10852,-0.36173 -0.37379,-0.55466 -0.25322,-0.20498 -0.56672,-0.20498 -1.03697,0 -1.92925,1.48311 v 6.04097 q 0,1.26607 0.2291,1.60368 0.24115,0.33762 0.88022,0.42203 v 0.43408 h -5.70335 v -0.43408 q 0.71141,-0.0724 1.01286,-0.4582 0.20498,-0.26527 0.20498,-1.56751 v -6.36653 q 0,-1.27813 -0.24115,-1.59163 -0.2291,-0.3135 -0.97669,-0.40997 v -0.44614 z" />
      <path
         id="path897"
         style="font-style:normal;font-variant:normal;font-weight:bold;font-stretch:normal;font-family:serif;-inkscape-font-specification:'serif Bold'"
         d="m 259.50376,70.060353 0.18086,3.84644 h -0.40996 q -0.73553,-1.71221 -1.53134,-2.33921 -0.78376,-0.62701 -1.56752,-0.62701 -0.49437,0 -0.84405,0.33762 -0.34967,0.32556 -0.34967,0.75964 0,0.32556 0.24115,0.62701 0.38585,0.49437 2.15835,1.70015 1.7725,1.19372 2.32716,2.03777 0.56672,0.83199 0.56672,1.86896 0,0.94051 -0.47026,1.84485 -0.47025,0.90433 -1.32636,1.38665 -0.8561,0.48231 -1.89307,0.48231 -0.80788,0 -2.15835,-0.50643 -0.36174,-0.13264 -0.49437,-0.13264 -0.39791,0 -0.66318,0.60289 h -0.39791 l -0.19293,-4.05142 h 0.40997 q 0.5426,1.59163 1.48311,2.38745 0.95257,0.79581 1.79662,0.79581 0.57877,0 0.9405,-0.34967 0.3738,-0.36174 0.3738,-0.86817 0,-0.57877 -0.36174,-1.0008 -0.36173,-0.42202 -1.61574,-1.27812 -1.84485,-1.27813 -2.38745,-1.95337 -0.79582,-0.98874 -0.79582,-2.18246 0,-1.30225 0.89228,-2.35128 0.90434,-1.06108 2.60449,-1.06108 0.91639,0 1.7725,0.44613 0.32556,0.18087 0.53054,0.18087 0.21704,0 0.34968,-0.0844 0.13263,-0.0965 0.42202,-0.51849 z" />
    </g>
  </g>
</svg>
