<?xml version="1.0" encoding="UTF-8" standalone="no"?>
<svg
   xmlns:dc="http://purl.org/dc/elements/1.1/"
   xmlns:cc="http://creativecommons.org/ns#"
   xmlns:rdf="http://www.w3.org/1999/02/22-rdf-syntax-ns#"
   xmlns:svg="http://www.w3.org/2000/svg"
   xmlns="http://www.w3.org/2000/svg"
   xmlns:sodipodi="http://sodipodi.sourceforge.net/DTD/sodipodi-0.dtd"
   xmlns:inkscape="http://www.inkscape.org/namespaces/inkscape"
   inkscape:version="1.0 (4035a4fb49, 2020-05-01)"
   sodipodi:docname="undraw_businesswoman_pc12.svg"
   version="1.1"
   viewBox="0 0 1120 829.80067"
   height="829.80067"
   width="1120"
   data-name="Layer 1"
   id="fa973782-3a18-4630-a762-87130b613ac3">
  <metadata
     id="metadata117">
    <rdf:RDF>
      <cc:Work
         rdf:about="">
        <dc:format>image/svg+xml</dc:format>
        <dc:type
           rdf:resource="http://purl.org/dc/dcmitype/StillImage" />
      </cc:Work>
    </rdf:RDF>
  </metadata>
  <defs
     id="defs115" />
  <sodipodi:namedview
     inkscape:current-layer="fa973782-3a18-4630-a762-87130b613ac3"
     inkscape:window-maximized="1"
     inkscape:window-y="-8"
     inkscape:window-x="-8"
     inkscape:cy="443.51415"
     inkscape:cx="560"
     inkscape:zoom="0.55917044"
     showgrid="false"
     id="namedview113"
     inkscape:window-height="715"
     inkscape:window-width="1366"
     inkscape:pageshadow="2"
     inkscape:pageopacity="0"
     guidetolerance="10"
     gridtolerance="10"
     objecttolerance="10"
     borderopacity="1"
     bordercolor="#666666"
     pagecolor="#ffffff" />
  <title
     id="title2">all the data</title>
  <ellipse
     id="ellipse4"
     fill="#3f3d56"
     ry="18.74165"
     rx="144.42094"
     cy="975.58844"
     cx="1023.8649" />
  <rect
     x="48.285812"
     id="rect6"
     fill="#f2f2f2"
     height="272"
     width="436"
     y="192.02945" />
  <rect
     id="rect8"
     stroke-width="2"
     stroke-miterlimit="10"
     stroke="#3f3d56"
     fill="none"
     height="272"
     width="436"
     y="165.52945"
     x="75.785812" />
  <path
     id="path10"
     fill="#3f3d56"
     d="m 360.75381,367.49745 a 94,94 0 0 0 -66.468,-160.46801 v 94 z" />
  <path
     id="path12"
     fill="#2c47da"
     d="m 294.28581,207.02944 a 94.01123,94.01123 0 0 0 -44.968,176.56414 l 44.968,-82.56414 z" />
  <path
     id="path14"
     fill="#575a89"
     d="m 360.75381,367.49745 -66.468,-66.46801 -44.968,82.56414 a 94.04908,94.04908 0 0 0 111.436,-16.09613 z" />
  <rect
     id="rect16"
     fill="#2c47da"
     height="18"
     width="18"
     y="381.02945"
     x="92.285812" />
  <rect
     id="rect18"
     fill="#3f3d56"
     height="18"
     width="18"
     y="381.02945"
     x="118.28581" />
  <rect
     id="rect20"
     fill="#575a89"
     height="18"
     width="18"
     y="381.02945"
     x="144.28581" />
  <rect
     id="rect22"
     fill="#3f3d56"
     height="3"
     width="74"
     y="385.02945"
     x="403.28583" />
  <rect
     id="rect24"
     fill="#3f3d56"
     height="3"
     width="74"
     y="394.02945"
     x="403.28583" />
  <rect
     id="rect26"
     fill="#3f3d56"
     height="3"
     width="74"
     y="403.02945"
     x="403.28583" />
  <rect
     id="rect28"
     fill="#f2f2f2"
     height="272"
     width="248"
     y="571.02942"
     x="185.28581" />
  <rect
     id="rect30"
     stroke-width="2"
     stroke-miterlimit="10"
     stroke="#3f3d56"
     fill="none"
     height="272"
     width="248"
     y="545.02942"
     x="210.28581" />
  <rect
     id="rect32"
     fill="#2c47da"
     height="13.37143"
     width="13.37143"
     y="786.34369"
     x="223.28581" />
  <rect
     id="rect34"
     fill="#3f3d56"
     height="13.37143"
     width="13.37143"
     y="786.34369"
     x="242.6001" />
  <rect
     id="rect36"
     fill="#575a89"
     height="13.37143"
     width="13.37143"
     y="786.34369"
     x="261.9144" />
  <rect
     id="rect38"
     fill="#3f3d56"
     height="2.10811"
     width="52"
     y="792.15106"
     x="373.28583" />
  <rect
     id="rect40"
     fill="#3f3d56"
     height="2.10811"
     width="52"
     y="798.47534"
     x="373.28583" />
  <rect
     id="rect42"
     fill="#3f3d56"
     height="2.10811"
     width="52"
     y="804.79968"
     x="373.28583" />
  <path
     id="path44"
     fill="#3f3d56"
     d="m 334.28581,593.02944 v 22 a 66,66 0 0 1 46.66907,112.66906 l 15.55633,15.55634 a 88,88 0 0 0 -62.2254,-150.2254 z" />
  <path
     id="path46"
     fill="#575a89"
     d="M 396.51121,743.25484 380.95488,727.6985 a 65.98344,65.98344 0 0 1 -86.6,5.87165 l -13.31577,17.52075 a 87.99775,87.99775 0 0 0 115.4721,-7.83606 z" />
  <path
     id="path48"
     fill="#2c47da"
     d="m 268.28581,681.02944 a 66,66 0 0 1 66,-66 v -22 a 87.99914,87.99914 0 0 0 -53.2467,158.06146 l 13.31579,-17.52075 a 65.885,65.885 0 0 1 -26.06909,-52.54071 z" />
  <path
     id="path50"
     fill="#ffb9b9"
     d="m 979.91024,305.52277 c 0,0 -4.08028,30.31061 6.41186,33.808 10.49214,3.49739 7.57765,30.31062 7.57765,30.31062 l -31.47641,23.89875 -27.979,2.33159 -6.99476,-36.13958 4.08023,-9.32638 c 0,0 15.73821,-18.65268 4.66318,-37.88826 -11.07503,-19.23558 43.71725,-6.99474 43.71725,-6.99474 z" />
  <path
     id="path52"
     opacity="0.1"
     d="m 979.91024,305.52277 c 0,0 -4.08028,30.31061 6.41186,33.808 10.49214,3.49739 7.57765,30.31062 7.57765,30.31062 l -31.47641,23.89875 -27.979,2.33159 -6.99476,-36.13958 4.08023,-9.32638 c 0,0 15.73821,-18.65268 4.66318,-37.88826 -11.07503,-19.23558 43.71725,-6.99474 43.71725,-6.99474 z" />
  <path
     id="path54"
     fill="#575a89"
     d="m 950.76542,541.59577 -36.72248,86.2687 c 0,0 -28.56192,-16.3211 -45.46592,-14.57241 -16.904,1.74869 -37.88827,-18.65268 -37.88827,-18.65268 l 20.98427,-101.424 39.05406,-107.83584 54.20937,34.39089 z" />
  <path
     id="path56"
     opacity="0.1"
     d="m 950.76542,541.59577 -36.72248,86.2687 c 0,0 -28.56192,-16.3211 -45.46592,-14.57241 -16.904,1.74869 -37.88827,-18.65268 -37.88827,-18.65268 l 20.98427,-101.424 39.05406,-107.83584 54.20937,34.39089 z" />
  <polygon
     transform="translate(48.285814,164.52944)"
     id="polygon58"
     fill="#575a89"
     points="933.956,771.687 938.036,739.045 960.186,743.708 960.186,771.687 " />
  <polygon
     transform="translate(48.285814,164.52944)"
     id="polygon60"
     fill="#575a89"
     points="1033.631,739.045 1019.059,737.296 1005.069,717.478 1028.385,695.328 1047.621,706.986 " />
  <path
     id="path62"
     fill="#2f2e41"
     d="m 1013.7182,533.43525 34.3909,81.02261 c 0,0 -12.2408,89.766 -11.6579,97.3437 0.5829,7.5777 1.1658,10.49214 -1.7487,16.904 -2.9145,6.41186 -4.0803,10.49213 -2.3316,18.06979 1.7487,7.57766 2.3316,10.49213 1.1658,13.40661 -1.1658,2.91448 -9.3263,122.99115 -13.4066,131.1517 -4.0803,8.16055 2.3316,21.56717 -1.7487,22.733 -4.0803,1.16583 -34.39089,-1.74869 -36.13958,-8.74344 -1.74869,-6.99475 5.829,-23.89876 1.74869,-29.14483 -4.08031,-5.24607 0.5829,-194.10451 -5.24607,-206.92823 -5.82897,-12.82372 -69.94757,-24.48165 -69.94757,-24.48165 0,0 -5.829,-37.30537 -2.33158,-43.13433 3.49742,-5.82896 8.16052,-42.55148 8.16052,-42.55148 z" />
  <path
     id="path64"
     fill="#2f2e41"
     d="m 979.91024,931.55351 c 0,0 16.3211,-19.23558 30.31066,0 0,0 1.1657,22.733 11.075,27.39614 9.9092,4.66314 5.246,23.31585 -8.7435,23.89875 -13.9895,0.5829 -32.0593,2.91448 -32.64219,-4.66317 -0.58289,-7.57765 2.33158,-12.24083 -2.91448,-14.57241 -5.24606,-2.33158 0,-15.7382 0,-15.7382 z" />
  <path
     id="path66"
     fill="#2f2e41"
     d="m 981.65893,652.92902 c 0,0 -0.5829,41.96854 -4.66317,47.79751 -4.08027,5.82897 -6.41187,9.32634 -4.08028,15.7382 2.33159,6.41186 5.829,18.06979 4.08028,20.40138 -1.74872,2.33159 1.74868,14.57241 1.74868,14.57241 0,0 44.88296,21.56717 65.86726,66.45019 0,0 21.5672,35.55668 27.979,36.13958 6.4119,0.5829 13.9896,-4.08028 10.4922,9.32634 -3.4974,13.40662 -16.904,30.89351 -26.8133,29.14482 -9.9092,-1.74869 -17.4868,-18.65268 -17.4868,-18.65268 0,0 -77.52522,-78.691 -85.68577,-81.02261 -8.16055,-2.33161 -31.47641,-20.98427 -35.55668,-32.6422 -4.08027,-11.65793 -12.82372,-109.00163 -8.74345,-115.41349 4.08027,-6.41186 19.23559,-15.15531 19.23559,-15.15531 z" />
  <path
     id="path68"
     fill="#2f2e41"
     d="m 1082.5,857.52567 c 0,0 36.1396,1.16579 36.7225,9.90924 0.5829,8.74345 -15.1553,60.62123 -12.8237,72.86205 2.3315,12.24082 -18.0698,40.21986 -31.4764,34.39089 -13.4066,-5.82897 -2.9145,-36.13958 -2.9145,-36.13958 0,0 -13.4066,-41.38564 -11.075,-41.96854 2.3316,-0.5829 25.6474,-7.57765 24.4816,-14.57241 -1.1658,-6.99476 -2.9145,-24.48165 -2.9145,-24.48165 z" />
  <circle
     id="circle70"
     fill="#ffb9b9"
     r="36.13958"
     cy="300.56815"
     cx="952.80554" />
  <path
     id="path72"
     fill="#2c47da"
     d="m 989.23658,356.23477 c 0,0 -19.81848,20.98427 -34.39089,17.48689 -14.57241,-3.49738 -22.15006,-28.56192 -22.15006,-28.56192 l -26.23034,-4.66318 c 0,0 -18.65269,82.7713 -18.65269,90.93185 0,8.16055 18.65269,96.17791 18.65269,111.91611 0,15.7382 -15.15531,25.06455 8.16055,24.48165 23.31586,-0.5829 12.24082,-8.16055 46.04882,-8.74344 33.808,-0.58289 39.05406,6.99475 46.04884,-5.24607 a 97.52308,97.52308 0 0 1 17.4869,-21.56717 l -12.2409,-43.13434 -1.7487,-121.82538 c 0,0 -14.94432,-29.14482 -21.75312,-26.81324 4e-5,0 3.68338,12.82373 0.7689,15.73824 z" />
  <path
     id="path74"
     fill="#575a89"
     d="m 982.05691,335.34112 c 0,0 31.07839,3.40672 39.82189,9.81859 8.7434,6.41187 33.2251,11.075 32.6422,15.7382 -0.5829,4.6632 -28.5619,71.11336 -28.5619,71.11336 0,0 -12.8238,52.46068 -1.7487,64.70151 11.075,12.24083 52.4606,145.72411 45.4659,156.79914 -6.9948,11.07503 -29.1448,-33.808 -29.1448,-33.808 0,0 -29.7277,-96.17791 -46.04885,-112.499 -16.3211,-16.32109 -17.48684,-104.33847 -17.48684,-108.41874 0,-4.08027 5.0611,-63.44506 5.0611,-63.44506 z" />
  <path
     id="path76"
     fill="#575a89"
     d="m 936.59856,342.1019 c 0,0 -38.29382,-14.42913 -51.70044,-8.60013 -13.40662,5.829 -21.56717,6.99475 -21.56717,6.99475 l -4.66314,57.12386 c 0,0 -1.74869,82.1884 -16.904,102.00688 -15.15531,19.81848 -25.06454,102.58977 -22.733,110.75032 2.33154,8.16055 -4.08027,22.15007 5.829,18.65269 9.90927,-3.49738 37.30537,-83.93709 37.30537,-83.93709 0,0 0,-46.04882 16.3211,-58.87254 16.3211,-12.82372 43.13433,-65.86729 44.30013,-78.691 1.1658,-12.82371 12.24082,-48.3804 12.24082,-48.3804 z" />
  <path
     id="path78"
     fill="#ffb9b9"
     d="m 1067.9276,525.8576 c 0,0 -17.4869,32.64217 -19.8185,38.47117 -2.3316,5.829 -18.6527,45.46593 -41.9685,36.72248 -23.31587,-8.74345 22.733,-51.29489 22.733,-51.29489 l 10.4921,-35.55668 c 0,0 27.3961,-5.82897 28.5619,11.65792 z" />
  <path
     id="path80"
     fill="#575a89"
     d="m 869.15992,340.49653 h -5.829 c 0,0 -5.829,-4.66317 -12.82372,-1.74869 -6.99472,2.91448 -23.31586,-1.16579 -23.31586,0.5829 0,1.74869 -18.06979,-5.24607 -25.64744,-1.74869 -7.57765,3.49738 -34.97379,4.66317 -34.97379,4.66317 0,0 -11.075,27.979 -3.49737,33.2251 7.57763,5.2461 18.65268,1.16579 23.89875,5.24607 5.24607,4.08028 15.15531,-0.5829 18.65268,4.66317 3.49737,5.24607 16.3211,14.57241 19.23559,8.74345 2.91449,-5.82896 -2.91449,-11.075 9.32634,-4.66318 12.24083,6.41182 31.47641,6.41187 31.47641,6.41187 z" />
  <path
     id="path82"
     fill="#2f2e41"
     d="m 956.06347,273.86658 c -4.89044,-1.13 -9.96711,0.1222 -14.92033,0.93394 -4.95322,0.81174 -10.41184,1.07935 -14.60177,-1.6843 -3.0943,-2.041 -4.99673,-5.41753 -6.78315,-8.66544 a 9.97336,9.97336 0 0 1 -1.45909,-3.82348 c -0.21032,-2.40206 1.31768,-4.59363 2.94029,-6.37723 7.537,-8.28481 18.55107,-12.81929 29.65825,-14.25967 9.13047,-1.184 18.64965,-0.3911 27.08125,3.307 8.4316,3.6981 15.67956,10.47034 18.99451,19.05978 a 54.12707,54.12707 0 0 1 2.83686,13.61089 40.65711,40.65711 0 0 1 0.19121,10.30794 44.18819,44.18819 0 0 1 -1.9976,7.46792 l -5.49117,16.58084 a 10.92419,10.92419 0 0 1 -2.15919,4.27407 3.73555,3.73555 0 0 1 -4.37439,0.95837 13.61344,13.61344 0 0 0 0.19684,-5.50046 4.64127,4.64127 0 0 0 -3.66213,-3.69318 c -2.024,-0.21479 -3.753,1.35417 -5.673,2.02989 a 6.979,6.979 0 0 1 -8.811,-5.24475 c -0.30309,-1.89562 0.20582,-3.92494 -0.51269,-5.7051 -0.84183,-2.08568 -3.07419,-3.17852 -4.7513,-4.67723 a 10.93629,10.93629 0 0 1 -3.00075,-11.3656 c 0.449,-1.37991 1.717,-2.00722 1.46331,-3.59244 -0.33281,-2.07969 -3.39898,-3.5337 -5.16496,-3.94176 z" />
  <rect
     id="rect84"
     fill="#f2f2f2"
     height="272"
     width="248"
     y="401.02945"
     x="555.28583" />
  <rect
     id="rect86"
     stroke-width="2"
     stroke-miterlimit="10"
     stroke="#3f3d56"
     fill="none"
     height="272"
     width="248"
     y="375.02945"
     x="580.28583" />
  <polyline
     transform="translate(48.285814,164.52944)"
     id="polyline88"
     stroke-width="2"
     stroke-miterlimit="10"
     stroke="#3f3d56"
     fill="none"
     points="556 227.5 556 435.5 757 435.5" />
  <rect
     id="rect90"
     fill="#575a89"
     height="72"
     width="45"
     y="527.02942"
     x="615.28583" />
  <rect
     id="rect92"
     fill="#3f3d56"
     height="121"
     width="45"
     y="478.02945"
     x="680.28583" />
  <rect
     id="rect94"
     fill="#2c47da"
     height="178"
     width="45"
     y="421.02945"
     x="745.28583" />
  <rect
     id="rect96"
     fill="#2c47da"
     height="13.37143"
     width="13.37143"
     y="616.34375"
     x="601.28583" />
  <rect
     id="rect98"
     fill="#3f3d56"
     height="13.37143"
     width="13.37143"
     y="616.34375"
     x="620.6001" />
  <rect
     id="rect100"
     fill="#575a89"
     height="13.37143"
     width="13.37143"
     y="616.34375"
     x="639.91437" />
  <rect
     id="rect102"
     fill="#3f3d56"
     height="2.10811"
     width="52"
     y="622.15106"
     x="751.28583" />
  <rect
     id="rect104"
     fill="#3f3d56"
     height="2.10811"
     width="52"
     y="628.4754"
     x="751.28583" />
  <rect
     id="rect106"
     fill="#3f3d56"
     height="2.10811"
     width="52"
     y="634.79968"
     x="751.28583" />
  <path
     id="path108"
     fill="#ffb9b9"
     d="m 772.59341,342.21169 c 10.62848,0.46211 18.52575,10.10069 17.376,20.67691 -1.04159,9.58175 -4.884,21.50465 -16.98745,26.08434 -21.56716,8.16055 -20.40137,-37.88827 -16.3211,-39.637 2.72023,-1.16575 6.9948,-7.51284 15.93255,-7.12425 z" />
  <path
     id="path110"
     fill="#575a89"
     d="m 1048.1091,357.78377 6.4119,3.11414 c 0,0 13.9895,28.56192 14.5724,32.6422 0.5829,4.08028 9.9092,19.23558 6.4119,23.31586 -3.4974,4.08028 -8.7435,14.57241 -5.2461,18.65268 3.4974,4.08027 11.6579,20.40138 11.6579,26.23034 0,5.82896 -8.7434,21.56717 -2.9145,23.31586 5.829,1.74869 4.0803,24.48165 2.9145,26.23034 -1.1658,1.74869 -16.3211,30.31061 -16.3211,30.31061 0,0 -2.9145,-32.6422 -31.4764,-19.23558 0,0 -2.3316,-16.3211 0,-17.48689 2.3316,-1.16579 8.1606,-8.16055 3.4974,-9.32635 -4.6632,-1.1658 -11.075,-15.1553 -9.9093,-16.904 1.1658,-1.7487 4.0803,-4.08028 1.1658,-5.829 -2.9144,-1.74872 -5.246,-11.65792 -4.6631,-13.40661 0.5829,-1.74869 -6.4119,-9.90924 -6.4119,-9.90924 z" />
</svg>
