<?xml version="1.0" encoding="utf-8"?>
<!-- Generator: Adobe Illustrator 22.1.0, SVG Export Plug-In . SVG Version: 6.00 Build 0)  -->
<svg version="1.1" id="_x39_8b38715-c4ac-41e9-8897-c725e8bf1e12"
	 xmlns="http://www.w3.org/2000/svg" xmlns:xlink="http://www.w3.org/1999/xlink" x="0px" y="0px" viewBox="0 0 1046.3 851.8"
	 style="enable-background:new 0 0 1046.3 851.8;" xml:space="preserve">
<style type="text/css">
	.st0{opacity:0.1;fill:#3F84F7;enable-background:new    ;}
	.st1{opacity:0.35;}
	.st2{opacity:0.2;fill:#3F84F7;enable-background:new    ;}
	.st3{fill:none;stroke:#535461;stroke-width:2;stroke-miterlimit:10;}
	.st4{fill:#3F84F7;}
	.st5{opacity:0.25;enable-background:new    ;}
	.st6{opacity:0.1;enable-background:new    ;}
	.st7{fill:#FFD037;}
	.st8{fill:#65617D;}
	.st9{fill:#9D9CB5;}
	.st10{fill:url(#SVGID_1_);}
	.st11{fill:#F6F7F9;}
	.st12{fill:url(#SVGID_2_);}
	.st13{fill:url(#SVGID_3_);}
	.st14{fill:url(#SVGID_4_);}
	.st15{fill:url(#SVGID_5_);}
	.st16{fill:url(#SVGID_6_);}
	.st17{opacity:0.5;}
	.st18{fill:url(#SVGID_7_);}
	.st19{fill:#FDA57D;}
	.st20{opacity:5.000000e-02;enable-background:new    ;}
	.st21{fill:#47E6B1;}
	.st22{fill:#3D213C;}
	.st23{fill:#B0BEC5;}
	.st24{fill:#ECEFF1;}
</style>
<title>taking notes</title>
<path class="st0" d="M628.4,105.3c-43.8,37.1-100.6,34.7-150.3,15.4s-95.5-53.7-144-78.2c-39.7-20.2-82.4-33.7-126.5-40
	C145.8-6,76.8,4.5,33.8,64.5c-48,66.9-44.3,187.4,7.6,248.9c26.4,31.2,60.9,46.5,91,70.9c30.1,24.4,58,64.8,55.4,111.9
	c-2.4,43.6-30,77-58.6,98c-22.1,16.2-49.3,33.9-52,67.5c-2.6,32.5,20.3,57.9,42.1,72.4c71.2,47.2,159,46.8,230-1.2
	c25.3-17.1,48.6-39.9,75.2-53.2c69.7-35,146.6,0.2,220.4,13.1c62.5,10.9,126.6,5.3,187.5-16.5c36.6-13.1,73.3-33.1,99-70.3
	c18.5-26.9,30.1-60.9,40.9-94.5c11.6-35.8,22.7-71.9,33.3-108.2c6.4-21.8,12.7-44,14.3-67.3c3-42.3-9.6-84-26.8-119.7
	C952.4,131.5,883.7,71.9,809.4,56.8s-153.1,14.4-210.8,79.1"/>
<g class="st1">
	<path class="st2" d="M501,204v-6.6H396.2c-4.8,0-1.9,6.7-1.9,6.7h-56.9v149.1h250V204H501z"/>
</g>
<path class="st3" d="M833.4,315.3c0,0,31.5-55.8,79-71.9c19.9-6.6,37.2-19.5,49.2-36.8c5.6-8.2,10.5-17,14.5-26.1"/>
<path class="st4" d="M1005.9,170.2c-5.4,5.2-30.6,10.7-30.6,10.7s6.2-25,11.6-30.3c5.4-5.2,14-5.1,19.3,0.3
	C1011.4,156.3,1011.3,164.9,1005.9,170.2L1005.9,170.2z"/>
<path class="st4" d="M991.7,215.4c-7.4,1.5-31.5-7.7-31.5-7.7s18.8-17.6,26.2-19.1c7.4-1.5,14.6,3.3,16,10.7
	C1003.9,206.7,999.1,213.9,991.7,215.4L991.7,215.4L991.7,215.4z"/>
<path class="st4" d="M939.8,264.4c-7.1-2.5-23.3-22.5-23.3-22.5s25.1-5.8,32.2-3.3c7.1,2.5,10.9,10.2,8.4,17.4
	C954.7,263.1,946.9,266.9,939.8,264.4L939.8,264.4z"/>
<path class="st4" d="M892.2,292.6c-7.4-1.2-26.8-18.2-26.8-18.2s23.8-9.9,31.2-8.7c7.4,1.2,12.5,8.3,11.2,15.7
	C906.7,288.8,899.6,293.9,892.2,292.6L892.2,292.6z"/>
<path class="st4" d="M939.2,188.2c0,7.5,13.6,29.4,13.6,29.4s13.7-21.8,13.7-29.4c0.2-7.5-5.7-13.8-13.3-14
	c-7.5-0.2-13.8,5.7-14,13.3C939.2,187.7,939.2,188,939.2,188.2L939.2,188.2z"/>
<path class="st4" d="M884,221.9c2.2,7.2,21.8,24,21.8,24s6.5-24.9,4.2-32.1c-1.9-7.3-9.3-11.7-16.6-9.8c-7.3,1.9-11.7,9.3-9.8,16.6
	C883.7,221.1,883.8,221.5,884,221.9L884,221.9z"/>
<path class="st4" d="M834.8,262c1,7.5,17.4,27.3,17.4,27.3s10.6-23.5,9.6-30.9c-0.5-7.5-7-13.2-14.6-12.7c-7.5,0.5-13.2,7-12.7,14.6
	C834.6,260.9,834.7,261.5,834.8,262L834.8,262z"/>
<path class="st5" d="M1005.9,170.2c-5.4,5.2-30.6,10.7-30.6,10.7s6.2-25,11.6-30.3c5.4-5.2,14-5.1,19.3,0.3
	C1011.4,156.3,1011.3,164.9,1005.9,170.2L1005.9,170.2z"/>
<path class="st5" d="M991.7,215.4c-7.4,1.5-31.5-7.7-31.5-7.7s18.8-17.6,26.2-19.1c7.4-1.5,14.6,3.3,16,10.7
	C1003.9,206.7,999.1,213.9,991.7,215.4L991.7,215.4L991.7,215.4z"/>
<path class="st5" d="M939.8,264.4c-7.1-2.5-23.3-22.5-23.3-22.5s25.1-5.8,32.2-3.3c7.1,2.5,10.9,10.2,8.4,17.4
	C954.7,263.1,946.9,266.9,939.8,264.4L939.8,264.4z"/>
<path class="st5" d="M892.2,292.6c-7.4-1.2-26.8-18.2-26.8-18.2s23.8-9.9,31.2-8.7c7.4,1.2,12.5,8.3,11.2,15.7
	C906.7,288.8,899.6,293.9,892.2,292.6L892.2,292.6z"/>
<path class="st5" d="M939.2,188.2c0,7.5,13.6,29.4,13.6,29.4s13.7-21.8,13.7-29.4c0.2-7.5-5.7-13.8-13.3-14
	c-7.5-0.2-13.8,5.7-14,13.3C939.2,187.7,939.2,188,939.2,188.2L939.2,188.2z"/>
<path class="st5" d="M884,221.9c2.2,7.2,21.8,24,21.8,24s6.5-24.9,4.2-32.1c-1.9-7.3-9.3-11.7-16.6-9.8c-7.3,1.9-11.7,9.3-9.8,16.6
	C883.7,221.1,883.8,221.5,884,221.9L884,221.9z"/>
<path class="st5" d="M834.8,262c1,7.5,17.4,27.3,17.4,27.3s10.6-23.5,9.6-30.9c-0.5-7.5-7-13.2-14.6-12.7c-7.5,0.5-13.2,7-12.7,14.6
	C834.6,260.9,834.7,261.5,834.8,262L834.8,262z"/>
<path class="st3" d="M835.2,314.2c0,0,6.2-63.8,43-97.7c15.6-14.1,26.1-32.9,30-53.6c1.8-9.8,2.7-19.8,2.7-29.8"/>
<path class="st4" d="M934.1,111.6c-2.8,7-23.6,22.2-23.6,22.2s-4.5-25.4-1.7-32.4c2.8-7,10.8-10.4,17.8-7.6
	C933.6,96.7,936.9,104.6,934.1,111.6L934.1,111.6z"/>
<path class="st4" d="M939.4,158.8c-6.2,4.3-31.9,5.8-31.9,5.8s10-23.7,16.2-28.1c6.2-4.3,14.7-2.9,19,3.3S945.6,154.4,939.4,158.8z"
	/>
<path class="st4" d="M911.9,224.5c-7.5,0.6-30.4-11.1-30.4-11.1s20.6-15.4,28.1-16.1c7.5-0.6,14.1,4.9,14.7,12.5
	C924.9,217.3,919.4,223.9,911.9,224.5L911.9,224.5z"/>
<path class="st4" d="M879.8,269.6c-7.3,1.9-31.9-5.8-31.9-5.8s17.7-18.7,25-20.6c7.3-1.9,14.7,2.5,16.6,9.8
	C891.4,260.3,887.1,267.7,879.8,269.6L879.8,269.6z"/>
<path class="st4" d="M880.4,155.1c3,6.9,24.4,21.3,24.4,21.3s3.6-25.5,0.6-32.4c-3-6.9-11.1-10-18-7S877.4,148.2,880.4,155.1
	L880.4,155.1z"/>
<path class="st4" d="M843.6,208.4c5,5.7,29.6,13.1,29.6,13.1s-4.2-25.4-9.1-31.1c-5-5.7-13.6-6.2-19.2-1.2
	C839.2,194.1,838.6,202.7,843.6,208.4L843.6,208.4z"/>
<path class="st4" d="M814.9,265c4,6.4,27,17.9,27,17.9s0.2-25.8-3.8-32.2c-4.1-6.3-12.5-8.2-18.9-4.1
	C813.1,250.5,811.2,258.6,814.9,265L814.9,265z"/>
<path class="st3" d="M153.5,572.3c0,0-39-48.3-36.5-96.8c1.2-20.3-4.3-40.5-15.6-57.5c-5.4-8-11.5-15.5-18.3-22.4"/>
<path class="st4" d="M84.4,365c2.8,6.8-1.3,31.4-1.3,31.4S62.8,381.9,60,375.1c-2.8-6.7,0.4-14.5,7.2-17.3S81.6,358.3,84.4,365
	L84.4,365z"/>
<path class="st4" d="M120.1,394c-1.3,7.2-18.1,25.6-18.1,25.6s-9.2-23.2-7.9-30.4c1.2-7.2,8.1-12,15.3-10.8
	c7.2,1.2,12,8.1,10.8,15.3C120.2,393.8,120.2,393.9,120.1,394z"/>
<path class="st4" d="M145.7,458.2c-4.8,5.5-28.6,13-28.6,13s3.8-24.7,8.6-30.2c5-5.3,13.4-5.6,18.7-0.6
	C149.3,445.1,149.9,452.8,145.7,458.2L145.7,458.2z"/>
<path class="st4" d="M154.1,511.2c-3.8,6.3-26,17.6-26,17.6s-0.4-25,3.3-31.2c3.8-6.2,12-8.1,18.2-4.3
	C155.7,497,157.7,505,154.1,511.2z"/>
<path class="st4" d="M76.8,431.6c6.8,2.7,31.4-1.8,31.4-1.8S93.4,409.7,86.6,407c-6.9-2.5-14.5,1-17,7.9
	C67.2,421.5,70.4,428.8,76.8,431.6z"/>
<path class="st4" d="M87.5,493.4c7.3,0.5,29.4-11.1,29.4-11.1S96.7,467.6,89.4,467c-7.3-0.6-13.6,4.9-14.2,12.2
	S80.1,492.8,87.5,493.4L87.5,493.4z"/>
<path class="st4" d="M106,552c7.1,1.8,30.8-6,30.8-6s-17.4-17.9-24.4-19.6c-7.1-1.8-14.3,2.5-16,9.6C94.6,543.1,98.9,550.3,106,552
	L106,552z"/>
<path class="st4" d="M986.6,653.4c0,0,7.6,10-3.5,25s-20.3,27.8-16.6,37.2c0,0,16.8-28,30.5-28.4S1001.7,670.2,986.6,653.4z"/>
<path class="st6" d="M986.6,653.4c0.7,1,1.2,2,1.6,3.1c13.4,15.7,20.5,30.3,7.6,30.7c-12,0.3-26.3,21.7-29.8,27.1
	c0.1,0.4,0.3,0.8,0.4,1.2c0,0,16.8-28,30.5-28.4S1001.7,670.2,986.6,653.4z"/>
<path class="st7" d="M1000.8,666.1c0,3.5-0.4,6.4-0.9,6.4s-0.9-2.8-0.9-6.4s0.5-1.8,1-1.8S1000.8,662.6,1000.8,666.1z"/>
<path class="st7" d="M1005.7,670.3c-3.1,1.7-5.8,2.7-6,2.3s2.1-2.1,5.2-3.8s1.9-0.5,2.1,0S1008.8,668.6,1005.7,670.3z"/>
<path class="st4" d="M946.3,653.4c0,0-7.6,10,3.5,25c11.1,15,20.3,27.8,16.6,37.2c0,0-16.8-28-30.5-28.4S931.3,670.2,946.3,653.4z"
	/>
<path class="st6" d="M946.3,653.4c-0.7,1-1.2,2-1.6,3.1c-13.4,15.7-20.5,30.3-7.6,30.7c12,0.3,26.3,21.7,29.8,27.1
	c-0.1,0.4-0.2,0.8-0.4,1.2c0,0-16.8-28-30.5-28.4S931.3,670.2,946.3,653.4z"/>
<path class="st7" d="M932.1,666.1c0,3.5,0.4,6.4,0.9,6.4s0.9-2.8,0.9-6.4s-0.5-1.8-1-1.8S932.1,662.6,932.1,666.1z"/>
<path class="st7" d="M927.3,670.3c3.1,1.7,5.8,2.7,6,2.3s-2.1-2.1-5.2-3.8s-1.9-0.5-2.1,0S924.2,668.6,927.3,670.3z"/>
<ellipse class="st0" cx="966.5" cy="779.7" rx="79.8" ry="12.2"/>
<path class="st8" d="M1007.5,702.2l-0.4,3.1l-0.5,4.4l-0.2,1.8l-0.5,4.4l-0.2,1.8l-0.5,4.4l-6.1,50c-0.5,4.5-7.8,8-16.7,8h-31.7
	c-8.8,0-16.1-3.5-16.7-8l-6.1-50l-0.5-4.4l-0.2-1.8l-0.5-4.4l-0.2-1.8l-0.5-4.4l-0.4-3.1c-0.3-2.5,3.7-4.7,8.6-4.7h64.9
	C1003.9,697.5,1007.8,699.6,1007.5,702.2z"/>
<polygon class="st9" points="1007.2,705.3 1006.6,709.7 926.3,709.7 925.8,705.3 "/>
<polygon class="st9" points="1006.4,711.5 1005.9,715.9 927.1,715.9 926.5,711.5 "/>
<polygon class="st9" points="1005.6,717.8 1005.1,722.1 927.9,722.1 927.3,717.8 "/>
<linearGradient id="SVGID_1_" gradientUnits="userSpaceOnUse" x1="847.42" y1="454.58" x2="847.42" y2="663.93" gradientTransform="matrix(1 0 0 -1 -76.87 826.39)">
	<stop  offset="0" style="stop-color:#808080;stop-opacity:0.25"/>
	<stop  offset="0.54" style="stop-color:#808080;stop-opacity:0.12"/>
	<stop  offset="1" style="stop-color:#808080;stop-opacity:0.1"/>
</linearGradient>
<path class="st10" d="M803.7,186h-0.8c1.3-1.5,2-3,1.9-4.3l-7.6-7.6l2.9-6.5h-9.8l1.8-5.1h-5.8l-64.1,21.3c0,0-0.1,0.9,0,2.2H681
	v185.9h179.2V186H803.7z"/>
<rect x="682.3" y="186.6" class="st11" width="176.5" height="183.2"/>
<path class="st6" d="M803.2,186.6c-8.4,12.3-64.2,28.5-64.2,28.5l0.3-12.8H729c0.6-2.5-0.6-5.2-2.9-6.4c-3-1.6-3.3-7-3.2-9.3H803.2z
	"/>
<path class="st9" d="M786,163.4l-63.1,21c0,0-0.7,8.2,3.2,10.3c2.3,1.3,3.4,3.9,2.9,6.4h10.3L739,214c0,0,66.3-19.2,65.2-31.7
	l-7.5-7.5l2.8-6.4H790l1.8-5L786,163.4z"/>
<g class="st1">
	<rect x="714.9" y="246" class="st2" width="111.2" height="3.1"/>
</g>
<g class="st1">
	<rect x="714.9" y="262.5" class="st2" width="111.2" height="3.1"/>
</g>
<g class="st1">
	<rect x="714.9" y="278.9" class="st2" width="111.2" height="3.1"/>
</g>
<g class="st1">
	<rect x="714.9" y="295.3" class="st2" width="111.2" height="3.1"/>
</g>
<g class="st1">
	<rect x="714.9" y="311.8" class="st2" width="111.2" height="3.1"/>
</g>
<g class="st1">
	<rect x="714.9" y="328.2" class="st2" width="111.2" height="3.1"/>
</g>
<linearGradient id="SVGID_2_" gradientUnits="userSpaceOnUse" x1="271.52" y1="457" x2="271.52" y2="678.92" gradientTransform="matrix(1 0 0 -1 -76.87 826.39)">
	<stop  offset="0" style="stop-color:#808080;stop-opacity:0.25"/>
	<stop  offset="0.54" style="stop-color:#808080;stop-opacity:0.12"/>
	<stop  offset="1" style="stop-color:#808080;stop-opacity:0.1"/>
</linearGradient>
<path class="st12" d="M205.8,170.9h-0.4c3.2-8.1,6.1-16,6-17.5c-0.3-3-6.3,3.5-6.6,1.9s0-7.8-2.7-7.8s-4.4,3.2-6,3.2
	s-8.2-1.1-8.2-1.1l-8.4,21.3h-63.2v198.5h156.8V170.9H205.8z"/>
<rect x="118" y="172" class="st11" width="153.3" height="196.1"/>
<path class="st6" d="M205.6,172c-3.2,8.4-6.9,17.2-7.7,19.3c-1.6,4-2.7,1.9-4.5,1.3s-4.3,0.5-5.3,0s-7.4,0-7.4,0c0.1-1,0.1-2,0-2.9
	c-0.1-1.1-7.4,0-7.4,0l6.9-17.7H205.6z"/>
<path class="st9" d="M188,151l-14.7,37.7c0,0,7.2-1.1,7.4,0c0.1,1,0.1,2,0,2.9c0,0,6.3-0.5,7.4,0s3.5-0.5,5.3,0s2.9,2.7,4.5-1.3
	s13.4-32.6,13.1-35.6s-6.1,3.5-6.4,1.9s0-7.7-2.7-7.7s-4.3,3.2-5.9,3.2S188,151,188,151z"/>
<g class="st1">
	<rect x="139" y="224" class="st2" width="111.2" height="3.1"/>
</g>
<g class="st1">
	<rect x="139" y="235.8" class="st2" width="111.2" height="3.1"/>
</g>
<g class="st1">
	<rect x="139" y="247.6" class="st2" width="111.2" height="3.1"/>
</g>
<g class="st1">
	<rect x="139" y="259.3" class="st2" width="111.2" height="3.1"/>
</g>
<g class="st1">
	<rect x="139" y="271.1" class="st2" width="111.2" height="3.1"/>
</g>
<g class="st1">
	<rect x="139" y="282.9" class="st2" width="111.2" height="3.1"/>
</g>
<linearGradient id="SVGID_3_" gradientUnits="userSpaceOnUse" x1="847.535" y1="117.11" x2="847.535" y2="390.9" gradientTransform="matrix(1 0 0 -1 -76.87 826.39)">
	<stop  offset="0" style="stop-color:#808080;stop-opacity:0.25"/>
	<stop  offset="0.54" style="stop-color:#808080;stop-opacity:0.12"/>
	<stop  offset="1" style="stop-color:#808080;stop-opacity:0.1"/>
</linearGradient>
<path class="st13" d="M784.2,464.4h-0.4c3.9-10,7.5-19.8,7.3-21.6c-0.3-3.7-7.7,4.3-8,2.3s0-9.6-3.3-9.6s-5.4,4-7.4,4
	s-10.1-1.3-10.1-1.3L752,464.4h-77.5v244.9h192.2V464.4H784.2z"/>
<rect x="676.1" y="466.1" class="st11" width="188.9" height="241.6"/>
<path class="st6" d="M783.9,466.1c-3.9,10.3-8.4,21-9.4,23.6c-2,4.9-3.3,2.3-5.6,1.7s-5.3,0.7-6.6,0s-9.1,0-9.1,0
	c0.1-1.2,0.1-2.4,0-3.6c-0.2-1.3-9.1,0-9.1,0l8.4-21.6H783.9z"/>
<path class="st9" d="M762.3,440.2l-18.1,46.5c0,0,8.9-1.3,9.1,0c0.1,1.2,0.1,2.4,0,3.6c0,0,7.7-0.7,9.1,0s4.3-0.7,6.6,0
	s3.6,3.3,5.6-1.6s16.5-40.2,16.1-43.8s-7.6,4.3-7.9,2.3c-0.3-2,0-9.5-3.3-9.5s-5.3,3.9-7.2,3.9S762.3,440.2,762.3,440.2z"/>
<g class="st1">
	<rect x="714.9" y="533.6" class="st2" width="111.2" height="7.9"/>
</g>
<g class="st1">
	<rect x="714.9" y="585.1" class="st2" width="111.2" height="7.9"/>
</g>
<g class="st1">
	<rect x="714.9" y="636.6" class="st2" width="111.2" height="7.9"/>
</g>
<linearGradient id="SVGID_4_" gradientUnits="userSpaceOnUse" x1="211.575" y1="146.26" x2="211.575" y2="408.81" gradientTransform="matrix(1 0 0 -1 0 852)">
	<stop  offset="0" style="stop-color:#808080;stop-opacity:0.25"/>
	<stop  offset="0.54" style="stop-color:#808080;stop-opacity:0.12"/>
	<stop  offset="1" style="stop-color:#808080;stop-opacity:0.1"/>
</linearGradient>
<polygon class="st14" points="238,472.8 238,443.2 196.5,443.2 196.5,472.8 109.8,472.8 109.8,705.7 313.4,705.7 313.4,472.8 "/>
<rect x="111.9" y="473.9" class="st11" width="199.3" height="230.3"/>
<rect x="196.8" y="473.9" class="st6" width="40.6" height="31.4"/>
<rect x="196.8" y="444.7" class="st9" width="40.6" height="59.5"/>
<g class="st1">
	<rect x="156" y="529.6" class="st2" width="111.2" height="7.9"/>
</g>
<g class="st1">
	<rect x="156" y="545.4" class="st2" width="111.2" height="7.9"/>
</g>
<g class="st1">
	<rect x="156" y="561.2" class="st2" width="111.2" height="7.9"/>
</g>
<g class="st1">
	<rect x="156" y="577" class="st2" width="111.2" height="7.9"/>
</g>
<g class="st1">
	<rect x="237.4" y="594.5" class="st2" width="29.8" height="24.1"/>
</g>
<g class="st1">
	<rect x="156" y="624.3" class="st2" width="29.8" height="24.1"/>
</g>
<linearGradient id="SVGID_5_" gradientUnits="userSpaceOnUse" x1="570.6849" y1="120.64" x2="570.6849" y2="381.3343" gradientTransform="matrix(1 0 0 -1 -76.87 826.39)">
	<stop  offset="0" style="stop-color:#808080;stop-opacity:0.25"/>
	<stop  offset="0.54" style="stop-color:#808080;stop-opacity:0.12"/>
	<stop  offset="1" style="stop-color:#808080;stop-opacity:0.1"/>
</linearGradient>
<path class="st15" d="M523.9,472.4h-0.3c3.2-12.7,5.7-22.8,5.7-22.8l-13.8,6.5c0,0-9.8-13-13.4-10.8c-3.6,2.2-11.6,7.6-11.6,7.6
	l-10.6-5.4l-4,24.9h-83.6v179.9l5.4,3.2c4.4-1.6,11.7-4.3,11.7-4.3l-3.4,9.3l2.3,1.3l3.8-3.5l1.4,6.6l4.5,2.7l7.1-4.5l-2,7.7l6.7,4
	l19.5-7.3l-5.9,15.5l3.9,2.3l8.8-1.5c0,0-0.4,3.1-0.7,6.4l8.9,5.3c3.6-1.4,7-2.8,7-2.8s-0.3,3.4-0.5,6.7l5.9,3.6
	c4.7-2.7,10.7-6.5,10.7-6.5l-5,9.3h112.9V472.4H523.9z"/>
<path class="st11" d="M593.2,473.9v230.3H482.5l4.9-9.2c0,0-5.8,3.7-10.5,6.4l-5.8-3.5c0.2-3.3,0.5-6.6,0.5-6.6s-3.4,1.4-6.9,2.8
	l-8.7-5.2c0.2-3.3,0.6-6.3,0.6-6.3L448,684l-3.8-2.3l5.8-15.3l-19.1,7.2l-6.6-4l1.9-7.6l-7,4.5l-4.4-2.7l-1.4-6.5l-3.7,3.4l-2.2-1.3
	l3.3-9.2c0,0-7.1,2.7-11.5,4.2l-5.3-3.2V473.9H593.2z"/>
<g class="st1">
	<rect x="437.9" y="545.4" class="st2" width="111.2" height="7.9"/>
</g>
<g class="st1">
	<rect x="437.9" y="569.1" class="st2" width="111.2" height="7.9"/>
</g>
<g class="st1">
	<rect x="437.9" y="592.8" class="st2" width="111.2" height="7.9"/>
</g>
<g class="st1">
	<rect x="437.9" y="616.5" class="st2" width="22.3" height="7.9"/>
</g>
<path class="st6" d="M523,473.9c-5.4,21.4-13.3,51-15.4,50.5c-3.2-0.9-8.2-7-8.2-7s-11.8,11-17.5,5.3s-13.5-1.8-13.5-1.8l7.6-47
	L523,473.9z"/>
<path class="st9" d="M479.8,449.4L468.4,520c0,0,7.8-3.9,13.5,1.8s17.5-5.4,17.5-5.4s5,6.1,8.2,7s20.7-71.9,20.7-71.9l-13.5,6.4
	c0,0-9.6-12.8-13.2-10.7c-3.6,2.1-11.4,7.5-11.4,7.5L479.8,449.4z"/>
<linearGradient id="SVGID_6_" gradientUnits="userSpaceOnUse" x1="610.78" y1="534" x2="610.78" y2="691.71" gradientTransform="matrix(1 0 0 -1 -76.87 826.39)">
	<stop  offset="0" style="stop-color:#808080;stop-opacity:0.25"/>
	<stop  offset="0.54" style="stop-color:#808080;stop-opacity:0.12"/>
	<stop  offset="1" style="stop-color:#808080;stop-opacity:0.1"/>
</linearGradient>
<path class="st16" d="M573,141.4v-6.8H466.9c-4.9,0-1.9,6.8-1.9,6.8h-57.7v150.9h253.1v-151L573,141.4z"/>
<rect x="409" y="142.2" class="st11" width="250" height="149.2"/>
<path class="st6" d="M572.6,166.5h-99.2c0,0-1.1-11.5,2.4-13.6s-9.9-9.6-9.9-9.6c-0.1-0.3-0.3-0.7-0.4-1.1h107.1v3.5
	C572.6,145.6,586.2,157.7,572.6,166.5z"/>
<path class="st9" d="M467.8,135.5h104.8v9.1c0,0,13.6,12,0,20.9h-99.2c0,0-1.1-11.5,2.4-13.6s-9.9-9.6-9.9-9.6
	S463,135.5,467.8,135.5z"/>
<g class="st1">
	<rect x="439.7" y="189" class="st2" width="188.6" height="3.1"/>
</g>
<g class="st1">
	<rect x="439.7" y="200.7" class="st2" width="112.6" height="3.1"/>
</g>
<g class="st1">
	<rect x="439.7" y="212.5" class="st2" width="188.6" height="3.1"/>
</g>
<g class="st1">
	<rect x="439.7" y="224.2" class="st2" width="188.6" height="3.1"/>
</g>
<g class="st1">
	<rect x="439.7" y="236" class="st2" width="188.6" height="3.1"/>
</g>
<g class="st17">
	
		<linearGradient id="SVGID_7_" gradientUnits="userSpaceOnUse" x1="512.7351" y1="-31.31" x2="512.7351" y2="730.3904" gradientTransform="matrix(1 0 0 -1 -170.6 773)">
		<stop  offset="0" style="stop-color:#808080;stop-opacity:0.25"/>
		<stop  offset="0.54" style="stop-color:#808080;stop-opacity:0.12"/>
		<stop  offset="1" style="stop-color:#808080;stop-opacity:0.1"/>
	</linearGradient>
	<path class="st18" d="M530.7,151.2c-6.4,0.8-11.9,4.8-14.7,10.6c-6,12.5-18,34.4-29,37.8c-7.1,2.2-17.5,0.3-26.7-2.3l-3.7-1.1l0,0
		v-4.7c0,0-53.7-29.8-84.3-36.7v-21.8c18.5-11.7,24-36.3,12.3-54.8c-0.9-1.5-2-2.9-3.1-4.3c8.2-3,13.6-8.3,13.6-14.2
		c0-9.4-13.4-17-30-17c-14.4,0-26.5,5.7-29.4,13.4c-22,4.5-36.3,25.9-31.8,47.9c2.4,11.6,9.7,21.6,20,27.4v21.7
		c-16.5-0.2-63.7,6.8-84.3,87.6c0,0,2.9,2.5,7.4,6l0,0l-0.6,1.6l-54.8,141.1c0,0-43.6,11.6-21.3,33c0,0,0-0.3-0.1-0.9l10.9,25.2
		l1.9,4.2l0,0l12.9,27.6l0,0l-1.3,6.3l0,0l-16.5,81.2h-22.8v12.9h20.1l-45.9,225.5H144l44.2-225.5h54.7l29.4,62.8h-13.9v14.5h20.8
		l18.9,40.7c-2.3,2.3-2.5,5.9,5.2,11l6,12.8h-17.1v9.7h21.7l34.7,74.1h29l-35-74.1h15.6v-4.9c15.9,2.3,29,2.3,31.4-0.1
		c4.8-4.8,3.9-25.2-2.9-34.9c-0.7-1.1-1.6-2-2.6-2.8c0.8-20.3,3.7-60.8,14.2-85.3c14.5-33.9-7.7-71.7-7.7-71.7l-0.7-14.1v-5.6
		c8-1.5,13.3-2.7,13.3-2.7s-14.5-47.5,0-71.7c10.1-16.8,10.8-41.6,4.8-63.6l0,0v-0.2c-0.3-1.1-0.6-2.2-0.9-3.2v-0.2l0,0
		c3.2-2.9,6.2-6,8.8-9.4c0,0-20.3-94.9,0-125l40.7,2.9v-5.3H493l32-44.6c0,0,22.3-5.8,29.1-25.2C558.3,150,542.2,149.9,530.7,151.2z
		 M260.3,318.8c0,0,13.2-23.3,19.7-47.1l0,0v-0.1c0.3-1.2,0.6-2.4,0.9-3.6l0,0l0,0c1,0.4,2.1,0.7,3,1c0,0,9.7,87.2-5.8,91.1
		c0,0,3.1,2,8.5,4.9l0,0l-5.7,2.3l0,0l-32.8,13.1l2.1,6.9l0,0c-1.2,0.2-2.5,0.5-3.9,0.8l0,0c-9.4,2-23.2,5.9-34.4,12.9l0,0
		C212,400.9,224.5,358.5,260.3,318.8z M199.6,411.8c-1.1,1.5-2,3-2.8,4.6l-3.5-9.2c1.3,0.2,2.6,0.4,4.1,0.6
		C197.4,407.9,198.3,409.5,199.6,411.8z M203.4,501.5l1-5l0,0l22.5,48c-9.2,1.9-18.6,2.7-28,2.3c-1.8,0.9-3.5,2-5,3.3L203.4,501.5
		L203.4,501.5z M190.8,565.9l1.7-9.2c1.7,2.3,6,4.8,14.9,7.1c3.6,0.9,7.2,1.6,10.9,2.1H190.8z M307.5,656.1h16.9v-14.5h-23.8
		L271,578.8h13.2v-12.9h-15.8c10.5-1.4,18.2-3.5,19.6-5.7c3.6-5.6-1.2-24.3-9.5-32.7c-5.5-23.1-18.4-73-30.3-80.4l17-3.2l0,0h0.2
		l2.2-0.4l5.8,19.1c13.7-0.9,27.3-2.7,40.7-5.5v0.2c-11.3,2.2-22.7,3.8-34.1,4.8l0.1,0.4c11.3-0.7,22.6-2.1,33.8-4.1
		c-2.4,21.7-4.6,59,9.8,60.3c2.6,0.2,5.3,0.3,7.9,0.2l0,0v4.9h0.3c1,13.2,3.9,30.8,11.1,45.4l9.3,126.2c-8.6,1.3-17.2,1.7-25.9,1.1
		L307.5,656.1L307.5,656.1z"/>
</g>
<path class="st19" d="M259.9,387.4c0,0-80.4,9.3-56.1,58c15.4,31.6,27.8,64.7,37,98.7l42.6-8.9c0,0-16.8-79.5-31.8-88.9l40.2-7.5
	L259.9,387.4z"/>
<path class="st20" d="M251.4,446.3l40.2-7.5l-31.8-51.4c0,0-0.9,0.1-2.6,0.4l31.6,51.1l-40.2,7.5c15,9.3,31.8,88.9,31.8,88.9
	l-40,8.3l0.1,0.6l42.6-8.9C283.2,535.2,266.4,455.7,251.4,446.3z"/>
<path class="st4" d="M266.3,526.2c0,0-24.9,17.8-62.5,16.4c0,0-20,9.1,8.3,16.4c28.4,7.3,74.2,2.1,77.7-3.5s-1.5-24.6-9.9-32.3
	S266.3,526.2,266.3,526.2z"/>
<path class="st19" d="M331.9,501.5c0,0-1.9,36.5,11.2,62.7l9.3,126.3h29.9c0,0,0-61.7,14-94.5c14-32.8-7.5-69.2-7.5-69.2l-1.9-37.4
	L331.9,501.5z"/>
<path class="st21" d="M316.9,442.6c0,0-12.2,71.1,7.5,73c19.7,1.9,76.7-10.3,76.7-10.3s-14-45.8,0-69.2c14-23.4,9.3-62.7-6.6-87
	s-33.7,0-33.7,0L316.9,442.6z"/>
<circle class="st19" cx="350.6" cy="110.5" r="38.3"/>
<rect x="324.4" y="130.1" class="st19" width="46.8" height="42.1"/>
<path class="st4" d="M371.2,681.1c0,0-28.1,12.2-64.5,2.8c0,0-21.5,4.7,4.7,17.8c26.2,13.1,72,17.8,76.7,13.1
	c4.7-4.7,3.7-24.3-2.8-33.7C378.6,671.8,371.2,681.1,371.2,681.1z"/>
<path class="st19" d="M251.9,248.5l-55.2,142.2c0,0-42.1,11.2-20.6,31.8c0,0-3.7-19.7,26.2-14c0,0,8.4,14,8.4,18.7
	s9.6-15.6,5.8-25.6c10-29.3,25.9-56.2,46.6-79.2c0,0,23.4-41.2,22.4-69.2L251.9,248.5z"/>
<path class="st19" d="M437.1,198c0,0,29.9,14,44.9,9.3c10.6-3.3,22.1-24.5,28-36.5c2.7-5.6,8-9.4,14.2-10.2
	c11.1-1.3,26.7-1.2,22.4,11.1c-6.6,18.7-28.1,24.3-28.1,24.3l-30.9,43h-54.3L437.1,198z"/>
<circle class="st22" cx="343.6" cy="107.2" r="39.3"/>
<ellipse class="st22" cx="364.2" cy="72.1" rx="29" ry="16.4"/>
<polygon class="st20" points="332,515.7 332,520.4 388.3,513.2 388.3,507.8 "/>
<path class="st21" d="M312.2,357.5l-60.8,24.3l24.3,79.5c0,0,73-3.7,100.1-31.8c27.1-28.1-44.9-84.2-44.9-84.2L312.2,357.5z"/>
<path class="st20" d="M382.9,413.6c0.3,5.9-1.9,11.7-6.1,15.9c-22.6,23.4-77.1,29.9-94.6,31.4l0.1,0.4c0,0,73-3.7,100.1-31.8
	c4-4,6.2-9.5,6.1-15.1"/>
<path class="st4" d="M330.1,162.9c0,0-62.7-11.2-87,84.2c0,0,26.2,22.4,43,27.1c0,0,9.3,84.2-5.6,87.9c0,0,87.9,57.1,132.8,0
	c0,0-19.7-91.7,0-120.7l39.3,2.8v-44.9c0,0-58.9-32.7-87-36.5H330.1z"/>
<polygon class="st20" points="253.5,388.4 249.7,389.2 267.8,443.3 270.1,442.8 "/>
<polygon class="st20" points="452.6,203.9 456.3,205.1 457.5,239.1 452.6,239.1 "/>
<polygon class="st20" points="250.2,252.9 249,256.1 282.2,276.9 283.1,273.2 "/>
<path class="st20" d="M288.6,366.9l-5.5,2.2c0,0,92.2,44.7,122.6,5.5l-1-3.5C404.8,371.1,376.8,408.6,288.6,366.9z"/>
<rect x="161.7" y="561" class="st23" width="124.4" height="12.4"/>
<polygon class="st23" points="171.1,410.2 186.6,445.9 213.1,445.9 197.5,405.5 "/>
<polygon class="st23" points="348.3,791.1 376.3,791.1 210.8,440.7 185.5,442.7 "/>
<polygon class="st23" points="136.8,791.1 150.8,791.1 213.1,473.9 203.7,463 "/>
<polygon class="st24" points="188.5,450 186.6,445.9 213.1,445.9 214,447.9 "/>
<polygon class="st6" points="188.5,450 186.6,445.9 213.1,445.9 214,447.9 "/>
<polygon class="st6" points="201,476.6 209.1,494 208.2,498.8 199.7,482.6 "/>
<polygon class="st6" points="196,561 193.5,573.4 197.8,573.4 199.7,561 "/>
<rect x="261.2" y="634.1" class="st23" width="63.7" height="14"/>
<rect x="293.9" y="710.3" class="st23" width="63.7" height="9.3"/>
<polygon class="st6" points="302,634.1 308.7,648.1 312.2,648.1 307.1,634.1 "/>
<polygon class="st6" points="338.1,710.3 342.5,719.6 346.4,719.6 342.2,710.3 "/>
<polygon class="st6" points="267.5,561 273.4,573.4 276.5,573.4 270.3,561 "/>
</svg>
